<?xml version="1.0" encoding="UTF-8"?>
<svg xmlns="http://www.w3.org/2000/svg" xmlns:xlink="http://www.w3.org/1999/xlink" viewBox="0 0 2000 2000">
  <defs>
    <style>
      .cls-1 {
        fill: #c2e6ff;
      }

      .cls-2 {
        fill: #fff;
      }

      .cls-3 {
        mix-blend-mode: soft-light;
      }

      .cls-4 {
        fill: none;
      }

      .cls-5 {
        isolation: isolate;
      }

      .cls-6 {
        fill: #0944f4;
      }

      .cls-7 {
        clip-path: url(#clippath);
      }
    </style>
    <clipPath id="clippath">
      <path class="cls-4" d="M1451.09,394.64c-138.25-103.78-435.12,18.25-676.88,63.89-241.76,45.63-585.4,300.37-361.1,720.61,224.3,420.24,402.79,474.5,802.51,397.58,399.72-76.92,581.55-395.86,444.44-597.91-137.11-202.05-75.22-483.77-208.97-584.17Z"/>
    </clipPath>
  </defs>
  <g class="cls-5">
    <g id="BACKGROUND">
      <rect class="cls-2" width="2000" height="2000"/>
    </g>
    <g id="OBJECT">
      <g>
        <path class="cls-1" d="M1451.09,394.64c-138.25-103.78-435.12,18.25-676.88,63.89-241.76,45.63-585.4,300.37-361.1,720.61,224.3,420.24,402.79,474.5,802.51,397.58,399.72-76.92,581.55-395.86,444.44-597.91-137.11-202.05-75.22-483.77-208.97-584.17Z"/>
        <g>
          <path class="cls-6" d="M1013.46,1523.18c7.69-7.11,14.59-15.32,20.45-24.59s10.32-19.03,13.44-29.02l-29.14-9.07c2.43-7.77,3.77-15.72,4.08-23.67l30.49,1.22c.84-21.46-3.98-42.84-13.94-61.86l-27.02,14.19c-3.69-7.04-8.32-13.65-13.84-19.63l22.42-20.7c-7.1-7.69-15.32-14.59-24.59-20.45-9.27-5.86-19.03-10.32-29.02-13.43l-9.07,29.13c-7.76-2.42-15.72-3.77-23.67-4.07l1.22-30.49c-21.46-.84-42.85,3.98-61.87,13.95l14.19,27.02c-7.04,3.69-13.65,8.32-19.63,13.84l-20.7-22.43c-7.69,7.11-14.59,15.32-20.45,24.59s-10.32,19.03-13.44,29.02l29.14,9.07c-2.43,7.77-3.77,15.72-4.08,23.67l-30.49-1.22c-.84,21.45,3.98,42.84,13.94,61.86l27.02-14.19c3.69,7.04,8.32,13.65,13.84,19.62l-22.42,20.7c7.1,7.69,15.32,14.59,24.59,20.45,9.27,5.86,19.03,10.32,29.02,13.43l9.08-29.13c7.76,2.42,15.72,3.77,23.66,4.08l-1.22,30.49c21.46.83,42.85-3.99,61.86-13.96l-14.19-27.01c7.04-3.69,13.65-8.32,19.63-13.84l20.7,22.43ZM957.07,1462.09c-2.56,2.36-5.39,4.35-8.4,5.92-3.06,1.6-6.3,2.79-9.65,3.55-3.34.75-6.79,1.07-10.24.94-3.4-.13-6.8-.71-10.13-1.75-3.21-1-6.35-2.43-9.33-4.32-2.98-1.88-5.62-4.11-7.9-6.57-2.36-2.55-4.34-5.39-5.92-8.4-1.61-3.06-2.79-6.31-3.55-9.65-.75-3.35-1.08-6.79-.94-10.24.13-3.4.7-6.81,1.75-10.13,1-3.22,2.43-6.35,4.32-9.33,1.88-2.98,4.1-5.62,6.57-7.9,2.56-2.37,5.39-4.35,8.4-5.93,3.05-1.6,6.3-2.79,9.65-3.54,3.35-.76,6.79-1.08,10.24-.94,3.4.14,6.81.71,10.13,1.75,3.21,1,6.35,2.44,9.33,4.32,2.98,1.88,5.62,4.1,7.91,6.57,2.36,2.56,4.35,5.39,5.92,8.4,1.6,3.06,2.79,6.31,3.54,9.65.75,3.34,1.08,6.79.94,10.24-.13,3.4-.7,6.81-1.75,10.13-1,3.21-2.43,6.35-4.32,9.33-1.88,2.98-4.1,5.62-6.57,7.9Z"/>
          <path d="M930.22,1557.15c-1.61,0-3.21-.03-4.82-.09l-1.5-.06,1.22-30.51c-7.17-.4-14.25-1.62-21.11-3.64l-9.08,29.14-1.43-.45c-10.29-3.21-20.18-7.78-29.38-13.6-9.2-5.81-17.57-12.78-24.89-20.7l-1.02-1.1,22.43-20.7c-4.77-5.33-8.92-11.21-12.35-17.51l-27.04,14.19-.7-1.33c-10.08-19.26-14.97-40.91-14.11-62.62l.06-1.5,30.5,1.22c.39-7.16,1.62-14.25,3.64-21.12l-29.15-9.08.45-1.43c3.21-10.3,7.79-20.18,13.6-29.38,5.81-9.19,12.77-17.57,20.7-24.89l1.1-1.02,20.71,22.44c5.34-4.78,11.22-8.93,17.51-12.35l-14.19-27.03,1.33-.7c19.24-10.09,40.89-14.96,62.62-14.12l1.5.06-1.22,30.51c7.15.39,14.24,1.61,21.12,3.63l9.07-29.14,1.43.45c10.29,3.21,20.18,7.78,29.38,13.6,9.2,5.82,17.57,12.78,24.89,20.7l1.02,1.1-22.43,20.7c4.78,5.34,8.92,11.22,12.35,17.52l27.03-14.19.7,1.33c10.09,19.25,14.97,40.9,14.12,62.62l-.06,1.5-30.5-1.22c-.39,7.15-1.62,14.24-3.64,21.12l29.15,9.08-.45,1.43c-3.22,10.3-7.79,20.18-13.6,29.37-5.81,9.19-12.77,17.57-20.7,24.89l-1.1,1.02-20.71-22.44c-5.34,4.78-11.22,8.92-17.51,12.35l14.19,27.02-1.33.7c-17.82,9.34-37.7,14.22-57.8,14.22ZM927.01,1554.11c20.18.55,40.28-4,58.27-13.15l-14.18-27.01,1.33-.7c7.01-3.67,13.5-8.25,19.3-13.61l1.1-1.02,20.7,22.42c7.28-6.9,13.7-14.72,19.1-23.27,5.4-8.55,9.71-17.7,12.82-27.24l-29.13-9.07.45-1.43c2.36-7.55,3.71-15.38,4.01-23.28l.06-1.5,30.48,1.22c.54-20.19-3.99-40.27-13.14-58.27l-27.01,14.18-.7-1.33c-3.66-7-8.24-13.5-13.61-19.31l-1.02-1.1,22.41-20.69c-6.89-7.28-14.71-13.7-23.26-19.1-8.55-5.41-17.71-9.71-27.24-12.81l-9.07,29.12-1.43-.45c-7.55-2.35-15.38-3.7-23.28-4.01l-1.5-.06,1.22-30.49c-20.19-.55-40.28,3.99-58.28,13.14l14.18,27.01-1.33.7c-7,3.66-13.5,8.24-19.3,13.61l-1.1,1.02-20.7-22.42c-7.28,6.9-13.7,14.72-19.1,23.27-5.4,8.55-9.71,17.71-12.82,27.24l29.13,9.07-.45,1.43c-2.36,7.55-3.71,15.38-4.01,23.28l-.06,1.5-30.48-1.22c-.54,20.18,3.99,40.26,13.14,58.27l27.02-14.18.7,1.33c3.67,7.01,8.25,13.51,13.61,19.3l1.02,1.1-22.42,20.69c6.89,7.28,14.71,13.7,23.26,19.1,8.55,5.41,17.71,9.71,27.24,12.82l9.07-29.13,1.43.45c7.53,2.35,15.36,3.7,23.27,4.01l1.5.06-1.22,30.48ZM930.33,1474.02c-.53,0-1.07-.01-1.6-.03-3.57-.14-7.11-.75-10.52-1.81-3.4-1.07-6.66-2.57-9.69-4.48-3.03-1.91-5.79-4.21-8.21-6.82-2.41-2.6-4.48-5.54-6.15-8.72-1.65-3.15-2.89-6.52-3.68-10.02-.79-3.51-1.11-7.09-.97-10.63.14-3.57.74-7.11,1.81-10.52,1.05-3.39,2.56-6.65,4.48-9.68,1.92-3.04,4.22-5.8,6.83-8.21,2.62-2.42,5.55-4.49,8.73-6.15,3.15-1.65,6.52-2.89,10.01-3.68,3.48-.79,7.05-1.11,10.63-.98,3.58.14,7.12.75,10.52,1.81,3.39,1.06,6.65,2.57,9.68,4.49,3.03,1.92,5.79,4.21,8.21,6.82,2.42,2.62,4.49,5.56,6.15,8.72,1.66,3.17,2.9,6.54,3.68,10.02.79,3.49,1.12,7.07.97,10.63-.14,3.58-.75,7.12-1.81,10.52-1.05,3.38-2.56,6.64-4.48,9.68-1.92,3.04-4.21,5.8-6.82,8.21h0c-2.64,2.44-5.57,4.5-8.73,6.15-3.15,1.65-6.52,2.89-10.01,3.68-2.96.67-5.99,1-9.02,1ZM930.4,1395.26c-2.82,0-5.63.31-8.37.94-3.24.73-6.36,1.88-9.28,3.41-2.94,1.54-5.66,3.46-8.08,5.7-2.42,2.23-4.55,4.79-6.33,7.61-1.78,2.82-3.18,5.83-4.15,8.97-.99,3.16-1.55,6.43-1.68,9.74-.13,3.28.17,6.6.9,9.85.73,3.24,1.88,6.36,3.41,9.28,1.55,2.95,3.47,5.67,5.7,8.08,2.24,2.43,4.8,4.55,7.61,6.33,2.8,1.77,5.82,3.17,8.98,4.16,3.15.98,6.43,1.55,9.74,1.68,3.31.13,6.62-.17,9.85-.9,3.24-.73,6.36-1.88,9.28-3.41,2.92-1.52,5.64-3.44,8.08-5.7h0c2.42-2.23,4.55-4.79,6.32-7.61,1.78-2.82,3.18-5.84,4.15-8.97.99-3.15,1.55-6.43,1.68-9.74.13-3.3-.17-6.61-.9-9.85-.72-3.23-1.87-6.35-3.41-9.29-1.54-2.93-3.45-5.65-5.7-8.08-2.24-2.42-4.79-4.54-7.61-6.32-2.81-1.78-5.83-3.18-8.97-4.16-3.15-.98-6.43-1.55-9.74-1.68-.49-.02-.99-.03-1.48-.03Z"/>
        </g>
        <g>
          <path class="cls-6" d="M1189.87,1602.51c4-6.56,7.22-13.75,9.49-21.47,2.27-7.72,3.46-15.5,3.65-23.19l-22.39-.55c.15-5.97-.5-11.86-1.88-17.53l21.77-5.27c-3.72-15.32-11.42-29.44-22.28-40.87l-16.22,15.45c-4.02-4.23-8.62-7.97-13.71-11.08l11.67-19.11c-6.56-4-13.74-7.22-21.47-9.49-7.72-2.27-15.5-3.46-23.19-3.65l-.55,22.39c-5.97-.15-11.85.5-17.52,1.88l-5.27-21.77c-15.32,3.72-29.45,11.42-40.87,22.28l15.44,16.22c-4.23,4.02-7.97,8.62-11.07,13.71l-19.12-11.67c-4,6.56-7.22,13.75-9.49,21.47s-3.46,15.5-3.65,23.19l22.39.55c-.15,5.97.5,11.86,1.88,17.53l-21.77,5.27c3.72,15.31,11.42,29.44,22.28,40.87l16.23-15.45c4.02,4.23,8.62,7.97,13.71,11.07l-11.67,19.12c6.56,4,13.74,7.22,21.47,9.49,7.72,2.27,15.5,3.46,23.19,3.65l.55-22.39c5.97.15,11.85-.5,17.52-1.88l5.27,21.77c15.32-3.72,29.44-11.42,40.87-22.28l-15.44-16.22c4.23-4.02,7.97-8.62,11.07-13.72l19.12,11.67ZM1137.79,1570.72c-1.33,2.18-2.93,4.15-4.74,5.87-1.84,1.75-3.89,3.23-6.1,4.44-2.21,1.2-4.57,2.12-7.04,2.72-2.42.59-4.95.87-7.5.8-2.47-.06-4.97-.44-7.45-1.17-2.48-.73-4.79-1.77-6.9-3.05-2.18-1.33-4.15-2.93-5.87-4.74-1.75-1.83-3.24-3.89-4.44-6.1-1.2-2.21-2.12-4.58-2.72-7.04-.59-2.43-.87-4.95-.8-7.5.06-2.47.44-4.97,1.17-7.45s1.77-4.79,3.05-6.9c1.33-2.18,2.93-4.15,4.74-5.87,1.83-1.74,3.89-3.23,6.1-4.44,2.21-1.21,4.58-2.12,7.04-2.72,2.43-.59,4.95-.87,7.5-.8,2.47.06,4.97.45,7.45,1.18s4.79,1.77,6.9,3.05c2.18,1.33,4.15,2.93,5.87,4.74,1.75,1.84,3.24,3.89,4.44,6.1,1.2,2.21,2.12,4.58,2.72,7.04.59,2.43.87,4.95.8,7.5-.06,2.47-.44,4.97-1.17,7.45s-1.76,4.79-3.05,6.9Z"/>
          <path d="M1112.38,1647.09l-1.5-.04c-7.95-.2-15.88-1.45-23.57-3.71-7.7-2.27-15.04-5.51-21.82-9.65l-1.28-.78,11.68-19.13c-4.22-2.7-8.15-5.87-11.7-9.45l-16.24,15.46-1.03-1.09c-11.04-11.62-18.87-25.99-22.64-41.55l-.35-1.46,21.78-5.27c-1.08-4.91-1.62-9.93-1.6-14.95l-22.41-.55.04-1.5c.2-7.95,1.45-15.88,3.72-23.57,2.26-7.69,5.51-15.04,9.65-21.83l.78-1.28,19.13,11.68c2.71-4.24,5.88-8.16,9.45-11.7l-15.45-16.23,1.09-1.03c11.61-11.03,25.97-18.87,41.55-22.65l1.46-.35,5.27,21.79c4.9-1.08,9.92-1.61,14.95-1.61l.55-22.4,1.5.04c7.95.2,15.88,1.45,23.57,3.71,7.7,2.27,15.04,5.52,21.82,9.65l1.28.78-11.67,19.13c4.24,2.72,8.16,5.89,11.7,9.45l16.23-15.46,1.03,1.09c11.04,11.61,18.87,25.98,22.65,41.55l.35,1.46-21.79,5.27c1.08,4.91,1.62,9.93,1.6,14.95l22.41.55-.04,1.5c-.2,7.95-1.45,15.88-3.72,23.57-2.26,7.69-5.51,15.04-9.65,21.83l-.78,1.28-19.13-11.68c-2.71,4.23-5.88,8.16-9.45,11.7l15.45,16.23-1.09,1.03c-11.61,11.03-25.97,18.87-41.55,22.65l-1.46.35-5.27-21.79c-4.92,1.08-9.9,1.65-14.95,1.6l-.55,22.41ZM1068.33,1631.89c6.2,3.64,12.86,6.52,19.82,8.57,6.96,2.05,14.12,3.24,21.3,3.54l.55-22.38,1.5.04c5.75.15,11.52-.47,17.13-1.83l1.46-.35,5.26,21.76c14.02-3.66,26.97-10.72,37.63-20.52l-15.44-16.21,1.09-1.04c4.18-3.97,7.83-8.48,10.82-13.41l.78-1.28,19.11,11.66c3.64-6.2,6.52-12.87,8.56-19.82,2.05-6.96,3.24-14.12,3.54-21.3l-22.38-.55.04-1.5c.15-5.77-.47-11.53-1.83-17.13l-.35-1.46,21.76-5.26c-3.66-14.01-10.72-26.97-20.51-37.64l-16.21,15.44-1.04-1.09c-3.96-4.18-8.47-7.82-13.4-10.83l-1.28-.78,11.66-19.1c-6.2-3.64-12.86-6.52-19.82-8.57-6.96-2.05-14.12-3.24-21.3-3.54l-.55,22.37-1.5-.04c-5.77-.14-11.54.48-17.13,1.84l-1.46.35-5.26-21.76c-14.02,3.66-26.97,10.72-37.64,20.52l15.44,16.21-1.09,1.03c-4.18,3.97-7.82,8.48-10.83,13.41l-.78,1.28-19.11-11.66c-3.64,6.2-6.52,12.87-8.56,19.82-2.05,6.96-3.24,14.11-3.54,21.3l22.38.55-.04,1.5c-.15,5.76.47,11.53,1.83,17.13l.35,1.46-21.76,5.26c3.65,14.01,10.72,26.96,20.51,37.63l16.22-15.43,1.03,1.09c3.98,4.19,8.49,7.83,13.4,10.83l1.28.78-11.66,19.11ZM1113.13,1586.06c-.25,0-.5,0-.76,0-2.65-.07-5.29-.48-7.84-1.23-2.55-.75-5-1.83-7.26-3.21-2.25-1.37-4.33-3.05-6.18-4.99-1.83-1.92-3.4-4.08-4.67-6.42-1.28-2.35-2.24-4.84-2.86-7.4-.63-2.59-.92-5.24-.85-7.89.06-2.64.48-5.27,1.23-7.84.76-2.57,1.84-5.01,3.21-7.26,1.38-2.26,3.06-4.34,4.99-6.18,1.92-1.82,4.08-3.39,6.41-4.67,2.33-1.27,4.82-2.24,7.4-2.86,2.59-.63,5.24-.91,7.89-.85,2.64.07,5.27.48,7.84,1.24,2.56.75,5,1.83,7.26,3.21,2.26,1.38,4.34,3.06,6.18,4.99,1.83,1.93,3.41,4.09,4.67,6.42,1.27,2.34,2.24,4.83,2.86,7.4.63,2.59.91,5.25.85,7.9-.06,2.63-.48,5.27-1.23,7.84-.75,2.56-1.83,5.01-3.21,7.26-1.39,2.28-3.07,4.36-4.99,6.18-1.92,1.83-4.08,3.4-6.41,4.67-2.34,1.27-4.83,2.23-7.4,2.86-2.34.57-4.74.86-7.14.86ZM1113.12,1528.24c-2.16,0-4.33.26-6.44.77-2.33.57-4.57,1.44-6.67,2.58-2.11,1.15-4.05,2.56-5.78,4.21-1.74,1.65-3.25,3.53-4.49,5.57-1.24,2.03-2.21,4.23-2.9,6.54-.68,2.31-1.05,4.69-1.11,7.07-.06,2.39.19,4.78.76,7.11.56,2.31,1.43,4.56,2.58,6.68,1.15,2.11,2.57,4.05,4.21,5.78,1.66,1.75,3.53,3.26,5.56,4.49,2.04,1.24,4.24,2.22,6.55,2.9,2.3.68,4.68,1.05,7.07,1.11,2.39.06,4.78-.19,7.11-.76,2.33-.56,4.57-1.43,6.68-2.58,2.1-1.15,4.05-2.57,5.78-4.21,1.73-1.64,3.24-3.51,4.49-5.56h0c1.24-2.03,2.21-4.23,2.89-6.55.68-2.32,1.06-4.69,1.11-7.06.06-2.39-.19-4.78-.76-7.11-.56-2.32-1.43-4.56-2.58-6.68-1.14-2.1-2.56-4.05-4.21-5.79-1.65-1.74-3.52-3.25-5.56-4.49-2.03-1.24-4.23-2.21-6.54-2.89-2.31-.68-4.69-1.06-7.07-1.11-.22,0-.45,0-.67,0Z"/>
        </g>
        <g>
          <path class="cls-6" d="M1336.69,1427.17c11.46-10.59,21.74-22.83,30.47-36.65,8.73-13.82,15.38-28.36,20.03-43.25l-43.43-13.52c3.62-11.57,5.62-23.43,6.08-35.27l45.44,1.82c1.26-31.98-5.93-63.85-20.78-92.2l-40.27,21.15c-5.49-10.5-12.4-20.35-20.62-29.25l33.41-30.84c-10.59-11.46-22.83-21.74-36.65-30.48-13.82-8.73-28.36-15.38-43.25-20.02l-13.52,43.42c-11.57-3.61-23.43-5.61-35.27-6.07l1.82-45.45c-31.98-1.25-63.85,5.93-92.2,20.79l21.14,40.26c-10.5,5.49-20.35,12.4-29.25,20.63l-30.85-33.42c-11.46,10.59-21.74,22.83-30.47,36.65-8.73,13.82-15.38,28.36-20.03,43.25l43.43,13.52c-3.62,11.57-5.62,23.43-6.08,35.27l-45.44-1.82c-1.25,31.97,5.93,63.84,20.78,92.2l40.27-21.14c5.5,10.49,12.4,20.35,20.62,29.25l-33.42,30.85c10.59,11.46,22.83,21.74,36.65,30.48,13.82,8.73,28.36,15.38,43.25,20.02l13.53-43.42c11.57,3.61,23.43,5.61,35.27,6.08l-1.82,45.45c31.99,1.24,63.85-5.94,92.2-20.8l-21.14-40.26c10.5-5.49,20.35-12.4,29.25-20.63l30.85,33.42ZM1252.65,1336.13c-3.82,3.52-8.03,6.48-12.52,8.83-4.56,2.39-9.39,4.16-14.38,5.29-4.98,1.12-10.11,1.6-15.26,1.4-5.06-.2-10.14-1.06-15.1-2.6-4.78-1.49-9.46-3.63-13.91-6.44-4.44-2.81-8.38-6.12-11.78-9.8-3.52-3.81-6.47-8.03-8.83-12.52-2.39-4.55-4.16-9.4-5.29-14.38-1.12-4.99-1.6-10.12-1.4-15.26.19-5.07,1.05-10.14,2.6-15.1,1.49-4.79,3.63-9.46,6.44-13.91,2.81-4.44,6.11-8.38,9.8-11.78,3.81-3.53,8.03-6.48,12.53-8.83,4.55-2.39,9.39-4.16,14.38-5.28,4.99-1.13,10.12-1.6,15.26-1.4,5.07.2,10.15,1.06,15.1,2.6,4.78,1.49,9.46,3.63,13.9,6.44,4.44,2.81,8.38,6.11,11.78,9.79,3.52,3.82,6.48,8.03,8.83,12.52,2.39,4.56,4.16,9.4,5.28,14.39,1.12,4.98,1.6,10.12,1.4,15.26-.2,5.07-1.05,10.14-2.6,15.1-1.49,4.79-3.63,9.46-6.44,13.91-2.81,4.44-6.11,8.38-9.8,11.78Z"/>
          <path d="M1212.64,1477.07c-2.39,0-4.77-.05-7.16-.14l-1.5-.06,1.82-45.45c-11.11-.56-22.1-2.45-32.72-5.64l-13.53,43.43-1.43-.45c-15.28-4.77-29.95-11.56-43.61-20.19-13.65-8.63-26.08-18.97-36.95-30.73l-1.02-1.1,33.43-30.85c-7.43-8.22-13.86-17.34-19.13-27.13l-40.28,21.15-.7-1.33c-14.97-28.58-22.21-60.73-20.95-92.95l.06-1.5,45.45,1.82c.55-11.09,2.45-22.09,5.64-32.72l-43.44-13.53.45-1.43c4.77-15.28,11.56-29.95,20.19-43.61,8.63-13.65,18.97-26.08,30.72-36.95l1.1-1.02,30.86,33.43c8.24-7.45,17.35-13.88,27.14-19.14l-21.14-40.27,1.33-.7c28.56-14.97,60.7-22.22,92.95-20.96l1.5.06-1.82,45.45c11.08.55,22.07,2.44,32.72,5.63l13.52-43.42,1.43.45c15.28,4.77,29.95,11.56,43.61,20.19,13.66,8.63,26.09,18.97,36.95,30.73l1.02,1.1-33.42,30.85c7.45,8.25,13.88,17.36,19.13,27.14l40.27-21.15.7,1.33c14.97,28.58,22.22,60.72,20.95,92.95l-.06,1.5-45.45-1.82c-.55,11.09-2.45,22.09-5.64,32.72l43.44,13.53-.45,1.43c-4.77,15.29-11.56,29.96-20.19,43.6-8.63,13.65-18.96,26.08-30.72,36.95l-1.1,1.02-30.86-33.43c-8.23,7.45-17.35,13.88-27.14,19.14l21.15,40.26-1.33.7c-26.45,13.86-55.97,21.11-85.79,21.11ZM1207.09,1473.99c30.74.95,61.29-5.95,88.61-19.99l-21.14-40.25,1.33-.7c10.5-5.5,20.23-12.36,28.93-20.4l1.1-1.02,30.85,33.42c11.11-10.45,20.91-22.32,29.12-35.32,8.22-13,14.74-26.94,19.41-41.46l-43.42-13.52.45-1.43c3.53-11.31,5.55-23.04,6.01-34.88l.06-1.5,45.44,1.82c.95-30.7-5.94-61.27-19.97-88.61l-40.26,21.14-.7-1.33c-5.49-10.48-12.35-20.22-20.39-28.93l-1.02-1.1,33.41-30.84c-10.44-11.11-22.31-20.9-35.32-29.13-13-8.22-26.95-14.75-41.47-19.4l-13.51,43.41-1.43-.45c-11.32-3.53-23.06-5.55-34.88-6.01l-1.5-.06,1.82-45.44c-30.71-.94-61.29,5.95-88.61,19.98l21.14,40.26-1.33.7c-10.5,5.49-20.23,12.36-28.93,20.4l-1.1,1.02-30.85-33.42c-11.11,10.44-20.9,22.32-29.12,35.32-8.22,13-14.75,26.95-19.41,41.47l43.42,13.52-.45,1.43c-3.53,11.31-5.56,23.04-6.01,34.88l-.06,1.5-45.43-1.82c-.95,30.7,5.94,61.27,19.97,88.61l40.27-21.14.7,1.33c5.51,10.51,12.37,20.24,20.4,28.92l1.02,1.1-33.42,30.84c10.44,11.12,22.32,20.91,35.32,29.13,13.01,8.22,26.95,14.75,41.47,19.41l13.52-43.41,1.43.45c11.29,3.52,23.02,5.54,34.88,6.01l1.5.06-1.82,45.44ZM1212.79,1353.18c-.79,0-1.57-.02-2.36-.05-5.26-.21-10.47-1.1-15.49-2.67-5.01-1.57-9.81-3.79-14.26-6.6-4.46-2.82-8.53-6.2-12.08-10.05-3.55-3.83-6.59-8.15-9.06-12.84-2.44-4.64-4.26-9.6-5.42-14.75-1.16-5.17-1.64-10.43-1.43-15.65.2-5.26,1.1-10.47,2.67-15.49,1.55-4.99,3.77-9.79,6.6-14.26,2.83-4.48,6.21-8.55,10.05-12.08,3.85-3.57,8.17-6.62,12.85-9.06,4.64-2.43,9.6-4.25,14.74-5.41,5.12-1.16,10.37-1.65,15.65-1.44,5.27.21,10.48,1.11,15.49,2.67,4.99,1.56,9.79,3.78,14.26,6.61,4.47,2.82,8.53,6.2,12.09,10.04,3.57,3.86,6.61,8.18,9.06,12.84,2.44,4.66,4.27,9.63,5.42,14.75,1.16,5.14,1.64,10.41,1.43,15.65-.2,5.27-1.1,10.48-2.67,15.49-1.55,4.98-3.77,9.78-6.6,14.26-2.83,4.47-6.21,8.54-10.05,12.08h0c-3.88,3.58-8.2,6.63-12.85,9.06-4.64,2.43-9.6,4.25-14.75,5.42-4.36.98-8.82,1.48-13.29,1.48ZM1212.9,1235.79c-4.25,0-8.49.47-12.63,1.41-4.89,1.1-9.6,2.83-14.01,5.14-4.44,2.32-8.54,5.22-12.2,8.61-3.65,3.36-6.86,7.22-9.55,11.48-2.69,4.25-4.8,8.81-6.27,13.55-1.49,4.76-2.35,9.71-2.54,14.71-.2,4.96.26,9.96,1.36,14.87,1.1,4.89,2.84,9.6,5.15,14.01,2.34,4.46,5.23,8.56,8.6,12.2,3.38,3.66,7.24,6.87,11.48,9.55,4.23,2.67,8.79,4.78,13.55,6.27,4.77,1.49,9.71,2.34,14.71,2.53,4.99.2,10-.26,14.87-1.36,4.89-1.11,9.6-2.84,14.02-5.15,4.41-2.3,8.51-5.2,12.2-8.6h0c3.65-3.37,6.86-7.23,9.55-11.48,2.69-4.26,4.8-8.82,6.27-13.55,1.49-4.75,2.34-9.7,2.54-14.71.2-4.98-.26-9.98-1.36-14.87-1.09-4.87-2.83-9.59-5.15-14.02-2.32-4.43-5.21-8.53-8.6-12.2-3.38-3.65-7.24-6.86-11.48-9.54-4.25-2.69-8.81-4.8-13.55-6.28-4.76-1.48-9.71-2.33-14.71-2.53-.74-.03-1.49-.04-2.24-.04Z"/>
        </g>
        <g>
          <g>
            <path d="M1608.45,547.46h-32.33c46.46,0,84.13,37.67,84.13,84.17v567.91c0,46.46-37.67,84.17-84.13,84.17h32.33c46.46,0,84.13-37.72,84.13-84.17v-567.91c0-46.5-37.67-84.17-84.13-84.17Z"/>
            <path d="M1608.45,1285.22h-32.33v-3c45.56,0,82.63-37.09,82.63-82.67v-567.91c0-45.59-37.07-82.67-82.63-82.67v-3h32.33c47.22,0,85.63,38.43,85.63,85.67v567.91c0,47.24-38.41,85.67-85.63,85.67ZM1598.62,1282.22h9.83c45.56,0,82.63-37.09,82.63-82.67v-567.91c0-45.59-37.07-82.67-82.63-82.67h-9.83c36.34,9.91,63.13,43.22,63.13,82.67v567.91c0,39.45-26.8,72.76-63.13,82.67Z"/>
          </g>
          <g>
            <path class="cls-2" d="M664.32,545.94h911.6c46.46,0,84.13,37.67,84.13,84.17v567.91c0,46.46-37.67,84.17-84.13,84.17h-911.6c-46.46,0-84.13-37.72-84.13-84.17v-567.91c0-46.5,37.67-84.17,84.13-84.17ZM664.36,1186.02h911.56c32.37,0,58.67-26.35,58.67-58.72v-497.19c0-32.37-26.3-58.72-58.67-58.72h-911.56c-32.37,0-58.72,26.35-58.72,58.72v497.19c0,32.37,26.35,58.72,58.72,58.72Z"/>
            <path d="M1575.92,1283.7h-911.6c-47.22,0-85.63-38.43-85.63-85.67v-567.91c0-47.24,38.41-85.67,85.63-85.67h911.6c47.22,0,85.63,38.43,85.63,85.67v567.91c0,47.24-38.41,85.67-85.63,85.67ZM664.32,547.44c-45.56,0-82.63,37.09-82.63,82.67v567.91c0,45.59,37.07,82.67,82.63,82.67h911.6c45.56,0,82.63-37.09,82.63-82.67v-567.91c0-45.59-37.07-82.67-82.63-82.67h-911.6ZM1575.92,1187.52h-911.56c-33.2,0-60.22-27.01-60.22-60.22v-497.19c0-33.2,27.01-60.22,60.22-60.22h911.56c33.18,0,60.17,27.01,60.17,60.22v497.19c0,33.2-26.99,60.22-60.17,60.22ZM664.36,572.89c-31.55,0-57.22,25.67-57.22,57.22v497.19c0,31.55,25.67,57.22,57.22,57.22h911.56c31.53,0,57.17-25.67,57.17-57.22v-497.19c0-31.55-25.65-57.22-57.17-57.22h-911.56Z"/>
          </g>
          <g>
            <path class="cls-1" d="M1634.79,631.62v497.18c0,23.47-13.79,43.75-33.73,53.12-7.6,3.61-16.04,5.61-24.95,5.61h-911.56c-32.37,0-58.72-26.34-58.72-58.72v-497.18c0-29.14,21.36-53.41,49.25-57.95,3.09-.51,6.25-.77,9.48-.77h911.56c3.23,0,6.4.26,9.48.77,27.88,4.54,49.2,28.81,49.2,57.95Z"/>
            <path d="M1576.11,1189.03h-911.56c-33.21,0-60.22-27.02-60.22-60.22v-497.18c0-29.67,21.24-54.67,50.51-59.43,3.19-.52,6.46-.79,9.72-.79h911.56c3.26,0,6.53.27,9.72.79,29.24,4.77,50.46,29.76,50.46,59.43v497.18c0,23.22-13.58,44.6-34.59,54.48-8.03,3.81-16.64,5.75-25.59,5.75ZM664.55,574.4c-3.09,0-6.2.25-9.23.75-27.81,4.53-47.99,28.28-47.99,56.47v497.18c0,31.55,25.67,57.22,57.22,57.22h911.56c8.5,0,16.68-1.84,24.31-5.46,19.97-9.38,32.87-29.7,32.87-51.76v-497.18c0-28.2-20.16-51.95-47.94-56.47-3.03-.5-6.13-.75-9.24-.75h-911.56Z"/>
          </g>
          <g>
            <path class="cls-6" d="M1634.79,631.62v11.77H605.83v-11.77c0-29.14,21.36-53.41,49.25-57.95h930.51c27.88,4.54,49.2,28.81,49.2,57.95Z"/>
            <path d="M1636.29,644.89H604.33v-13.27c0-29.67,21.24-54.67,50.51-59.43l.24-.02h930.63l.12.02c29.24,4.77,50.46,29.76,50.46,59.43v13.27ZM607.33,641.89h1025.96v-10.27c0-28.16-20.1-51.88-47.82-56.45h-930.27c-27.75,4.58-47.87,28.3-47.87,56.45v10.27Z"/>
          </g>
          <g>
            <circle class="cls-2" cx="665.59" cy="608.53" r="13.37"/>
            <path d="M665.59,623.4c-8.2,0-14.87-6.67-14.87-14.87s6.67-14.87,14.87-14.87,14.87,6.67,14.87,14.87-6.67,14.87-14.87,14.87ZM665.59,596.66c-6.55,0-11.87,5.33-11.87,11.87s5.33,11.87,11.87,11.87,11.87-5.33,11.87-11.87-5.33-11.87-11.87-11.87Z"/>
          </g>
          <g>
            <circle class="cls-2" cx="734.68" cy="608.53" r="13.37"/>
            <path d="M734.68,623.4c-8.2,0-14.87-6.67-14.87-14.87s6.67-14.87,14.87-14.87,14.87,6.67,14.87,14.87-6.67,14.87-14.87,14.87ZM734.68,596.66c-6.55,0-11.87,5.33-11.87,11.87s5.33,11.87,11.87,11.87,11.87-5.33,11.87-11.87-5.33-11.87-11.87-11.87Z"/>
          </g>
          <g>
            <circle class="cls-2" cx="800.24" cy="608.53" r="13.37"/>
            <path d="M800.24,623.4c-8.2,0-14.87-6.67-14.87-14.87s6.67-14.87,14.87-14.87,14.87,6.67,14.87,14.87-6.67,14.87-14.87,14.87ZM800.24,596.66c-6.55,0-11.87,5.33-11.87,11.87s5.33,11.87,11.87,11.87,11.87-5.33,11.87-11.87-5.33-11.87-11.87-11.87Z"/>
          </g>
          <g>
            <g>
              <path class="cls-6" d="M1238.89,794.28c0,28.87-12.21,54.89-31.74,73.18-17.92,16.78-42.01,27.06-68.5,27.06-28.8,0-54.77-12.15-73.05-31.6-16.86-17.93-27.19-42.08-27.19-68.64,0-55.36,44.88-100.24,100.24-100.24s100.24,44.88,100.24,100.24Z"/>
              <path d="M1138.65,896.02c-28.37,0-54.71-11.39-74.15-32.07-17.8-18.93-27.6-43.67-27.6-69.66,0-56.1,45.64-101.74,101.74-101.74s101.74,45.64,101.74,101.74c0,28.03-11.74,55.11-32.22,74.28-18.91,17.71-43.6,27.46-69.53,27.46ZM1138.65,695.53c-54.45,0-98.74,44.3-98.74,98.74,0,25.23,9.51,49.24,26.78,67.61,18.87,20.07,44.43,31.13,71.96,31.13,25.16,0,49.12-9.47,67.48-26.65,19.87-18.6,31.27-44.88,31.27-72.09,0-54.45-44.3-98.74-98.74-98.74Z"/>
            </g>
            <g>
              <g>
                <circle class="cls-2" cx="1135.43" cy="773.18" r="38.32"/>
                <path d="M1135.43,813c-21.96,0-39.82-17.86-39.82-39.82s17.86-39.82,39.82-39.82,39.82,17.86,39.82,39.82-17.86,39.82-39.82,39.82ZM1135.43,736.36c-20.3,0-36.82,16.52-36.82,36.82s16.52,36.82,36.82,36.82,36.82-16.52,36.82-36.82-16.52-36.82-36.82-36.82Z"/>
              </g>
              <g>
                <path class="cls-2" d="M1207.15,867.46c-17.92,16.78-42.01,27.06-68.5,27.06-28.8,0-54.77-12.15-73.05-31.6,12.04-26.55,38.78-45.03,69.84-45.03,32.8,0,60.78,20.6,71.72,49.58Z"/>
                <path d="M1138.65,896.02c-28.37,0-54.71-11.39-74.15-32.07l-.69-.73.41-.91c12.64-27.89,40.59-45.91,71.2-45.91,32.33,0,61.71,20.31,73.12,50.55l.35.94-.73.69c-18.91,17.71-43.6,27.46-69.53,27.46ZM1067.38,862.62c18.8,19.61,44.07,30.4,71.27,30.4,24.82,0,48.48-9.21,66.74-25.97-11.22-28.55-39.2-47.67-69.95-47.67-29.1,0-55.7,16.94-68.05,43.24Z"/>
              </g>
            </g>
            <g>
              <path class="cls-2" d="M1445.26,937.4v24.61c0,11.94-9.77,21.71-21.7,21.71h-574.38c-11.94,0-21.7-9.77-21.7-21.71v-24.61c0-11.94,9.77-21.7,21.7-21.7h574.38c11.94,0,21.7,9.77,21.7,21.7Z"/>
              <path d="M1423.56,985.23h-574.38c-12.79,0-23.2-10.41-23.2-23.21v-24.61c0-12.79,10.41-23.2,23.2-23.2h574.38c12.8,0,23.2,10.41,23.2,23.2v24.61c0,12.8-10.41,23.21-23.2,23.21ZM849.18,917.2c-11.14,0-20.2,9.06-20.2,20.2v24.61c0,11.14,9.06,20.21,20.2,20.21h574.38c11.14,0,20.2-9.07,20.2-20.21v-24.61c0-11.14-9.06-20.2-20.2-20.2h-574.38Z"/>
            </g>
            <g>
              <rect class="cls-2" x="827.48" y="1011.49" width="617.79" height="68.03" rx="21.7" ry="21.7"/>
              <path d="M1423.56,1081.01h-574.38c-12.79,0-23.2-10.41-23.2-23.2v-24.62c0-12.79,10.41-23.2,23.2-23.2h574.38c12.8,0,23.2,10.41,23.2,23.2v24.62c0,12.8-10.41,23.2-23.2,23.2ZM849.18,1012.99c-11.14,0-20.2,9.06-20.2,20.2v24.62c0,11.14,9.06,20.2,20.2,20.2h574.38c11.14,0,20.2-9.06,20.2-20.2v-24.62c0-11.14-9.06-20.2-20.2-20.2h-574.38Z"/>
            </g>
            <g>
              <path class="cls-6" d="M1001.39,915.7v68.03h-152.21c-11.94,0-21.7-9.77-21.7-21.71v-24.61c0-11.94,9.77-21.7,21.7-21.7h152.21Z"/>
              <path d="M1002.89,985.23h-153.71c-12.79,0-23.2-10.41-23.2-23.21v-24.61c0-12.79,10.41-23.2,23.2-23.2h153.71v71.03ZM849.18,917.2c-11.14,0-20.2,9.06-20.2,20.2v24.61c0,11.14,9.06,20.21,20.2,20.21h150.71v-65.03h-150.71Z"/>
            </g>
            <g>
              <path class="cls-6" d="M849.18,1011.49h152.21v68.03h-152.21c-11.94,0-21.7-9.77-21.7-21.7v-24.62c0-11.94,9.77-21.7,21.7-21.7Z"/>
              <path d="M1002.89,1081.01h-153.71c-12.79,0-23.2-10.41-23.2-23.2v-24.62c0-12.79,10.41-23.2,23.2-23.2h153.71v71.03ZM849.18,1012.99c-11.14,0-20.2,9.06-20.2,20.2v24.62c0,11.14,9.06,20.2,20.2,20.2h150.71v-65.03h-150.71Z"/>
            </g>
            <rect class="cls-1" x="1026.37" y="933.74" width="374.84" height="34.71" rx="17.35" ry="17.35"/>
            <g>
              <path d="M1070.19,1041.73l5.18,2.8-2.33,3.89-5.22-3.09.09,5.75h-4.46l.05-5.79-5.22,3.13-2.28-3.89,5.18-2.8-5.18-2.85,2.28-3.89,5.22,3.13-.05-5.79h4.46l-.09,5.79,5.22-3.13,2.33,3.89-5.18,2.85Z"/>
              <path d="M1091.75,1041.73l5.18,2.8-2.33,3.89-5.22-3.09.09,5.75h-4.46l.05-5.79-5.22,3.13-2.28-3.89,5.18-2.8-5.18-2.85,2.28-3.89,5.22,3.13-.05-5.79h4.46l-.09,5.79,5.22-3.13,2.33,3.89-5.18,2.85Z"/>
              <path d="M1113.31,1041.73l5.18,2.8-2.33,3.89-5.22-3.09.09,5.75h-4.46l.05-5.79-5.22,3.13-2.28-3.89,5.18-2.8-5.18-2.85,2.28-3.89,5.22,3.13-.05-5.79h4.46l-.09,5.79,5.22-3.13,2.33,3.89-5.18,2.85Z"/>
              <path d="M1134.88,1041.73l5.18,2.8-2.33,3.89-5.22-3.09.09,5.75h-4.46l.05-5.79-5.22,3.13-2.28-3.89,5.18-2.8-5.18-2.85,2.28-3.89,5.22,3.13-.05-5.79h4.46l-.09,5.79,5.22-3.13,2.33,3.89-5.18,2.85Z"/>
              <path d="M1156.44,1041.73l5.18,2.8-2.33,3.89-5.22-3.09.09,5.75h-4.46l.05-5.79-5.22,3.13-2.28-3.89,5.18-2.8-5.18-2.85,2.28-3.89,5.22,3.13-.05-5.79h4.46l-.09,5.79,5.22-3.13,2.33,3.89-5.18,2.85Z"/>
              <path d="M1178,1041.73l5.18,2.8-2.33,3.89-5.22-3.09.09,5.75h-4.46l.05-5.79-5.22,3.13-2.28-3.89,5.18-2.8-5.18-2.85,2.28-3.89,5.22,3.13-.05-5.79h4.46l-.09,5.79,5.22-3.13,2.33,3.89-5.18,2.85Z"/>
              <path d="M1199.56,1041.73l5.18,2.8-2.33,3.89-5.22-3.09.09,5.75h-4.46l.05-5.79-5.22,3.13-2.28-3.89,5.18-2.8-5.18-2.85,2.28-3.89,5.22,3.13-.05-5.79h4.46l-.09,5.79,5.22-3.13,2.33,3.89-5.18,2.85Z"/>
              <path d="M1221.12,1041.73l5.18,2.8-2.33,3.89-5.22-3.09.09,5.75h-4.46l.05-5.79-5.22,3.13-2.28-3.89,5.18-2.8-5.18-2.85,2.28-3.89,5.22,3.13-.05-5.79h4.46l-.09,5.79,5.22-3.13,2.33,3.89-5.18,2.85Z"/>
              <path d="M1242.68,1041.73l5.18,2.8-2.33,3.89-5.22-3.09.09,5.75h-4.46l.05-5.79-5.22,3.13-2.28-3.89,5.18-2.8-5.18-2.85,2.28-3.89,5.22,3.13-.05-5.79h4.46l-.09,5.79,5.22-3.13,2.33,3.89-5.18,2.85Z"/>
              <path d="M1264.25,1041.73l5.18,2.8-2.33,3.89-5.22-3.09.09,5.75h-4.46l.05-5.79-5.22,3.13-2.28-3.89,5.18-2.8-5.18-2.85,2.28-3.89,5.22,3.13-.05-5.79h4.46l-.09,5.79,5.22-3.13,2.33,3.89-5.18,2.85Z"/>
              <path d="M1285.81,1041.73l5.18,2.8-2.33,3.89-5.22-3.09.09,5.75h-4.46l.05-5.79-5.22,3.13-2.28-3.89,5.18-2.8-5.18-2.85,2.28-3.89,5.22,3.13-.05-5.79h4.46l-.09,5.79,5.22-3.13,2.33,3.89-5.18,2.85Z"/>
              <path d="M1307.37,1041.73l5.18,2.8-2.33,3.89-5.22-3.09.09,5.75h-4.46l.05-5.79-5.22,3.13-2.28-3.89,5.18-2.8-5.18-2.85,2.28-3.89,5.22,3.13-.05-5.79h4.46l-.09,5.79,5.22-3.13,2.33,3.89-5.18,2.85Z"/>
              <path d="M1328.93,1041.73l5.18,2.8-2.33,3.89-5.22-3.09.09,5.75h-4.46l.05-5.79-5.22,3.13-2.28-3.89,5.18-2.8-5.18-2.85,2.28-3.89,5.22,3.13-.05-5.79h4.46l-.09,5.79,5.22-3.13,2.33,3.89-5.18,2.85Z"/>
              <path d="M1350.49,1041.73l5.18,2.8-2.33,3.89-5.22-3.09.09,5.75h-4.46l.05-5.79-5.22,3.13-2.28-3.89,5.18-2.8-5.18-2.85,2.28-3.89,5.22,3.13-.05-5.79h4.46l-.09,5.79,5.22-3.13,2.33,3.89-5.18,2.85Z"/>
              <path d="M1372.06,1041.73l5.18,2.8-2.33,3.89-5.22-3.09.09,5.75h-4.46l.05-5.79-5.22,3.13-2.28-3.89,5.18-2.8-5.18-2.85,2.28-3.89,5.22,3.13-.05-5.79h4.46l-.09,5.79,5.22-3.13,2.33,3.89-5.18,2.85Z"/>
            </g>
          </g>
          <g class="cls-3">
            <polygon class="cls-2" points="1041.13 1187.53 865.61 1187.53 667.65 572.9 843.17 572.9 1041.13 1187.53"/>
            <polygon class="cls-2" points="1141 1187.53 1088.6 1187.53 890.64 572.9 942.99 572.9 1141 1187.53"/>
            <polygon class="cls-2" points="1555.41 1187.53 1379.9 1187.53 1181.94 572.9 1357.45 572.9 1555.41 1187.53"/>
            <path class="cls-2" d="M1634.79,1124.02v4.79c0,23.46-13.79,43.74-33.73,53.12l-196.13-609.02h52.35l177.51,551.11Z"/>
          </g>
        </g>
        <g>
          <g>
            <g>
              <path class="cls-6" d="M407.62,785.54l23.92,2.27c1.6.15,3.15-.65,3.95-2.04l2.23-3.88-35.07-3.33,1.46,4.23c.53,1.52,1.89,2.6,3.5,2.75Z"/>
              <path d="M431.93,789.33c-.18,0-.35,0-.53-.02l-23.92-2.27c-2.18-.21-4.06-1.68-4.77-3.76l-2.22-6.44,39.71,3.78-3.4,5.9c-1,1.75-2.88,2.81-4.87,2.81ZM404.84,780.27l.7,2.03c.33.96,1.21,1.65,2.22,1.75l23.92,2.27c1,.1,2-.41,2.51-1.3l1.07-1.86-30.43-2.89Z"/>
            </g>
            <g>
              <g>
                <path class="cls-6" d="M385.86,718l79.78,7.59-3.19,33.59c-.3,3.16-1.72,6.1-4.01,8.3l-11.13,10.69c-2.78,2.67-6.59,4-10.44,3.64l-33.36-3.17c-3.84-.37-7.34-2.39-9.56-5.54l-8.91-12.6c-1.83-2.59-2.67-5.75-2.37-8.91l3.19-33.59Z"/>
                <path d="M438.14,783.37c-.47,0-.93-.02-1.4-.07l-33.36-3.17c-4.28-.41-8.16-2.65-10.65-6.17l-8.91-12.6c-2.04-2.88-2.98-6.4-2.64-9.91l3.34-35.09,82.77,7.87-3.34,35.09c-.33,3.51-1.92,6.79-4.46,9.24l-11.13,10.69c-2.76,2.65-6.42,4.12-10.22,4.12ZM387.22,719.63l-3.05,32.1c-.27,2.8.48,5.6,2.1,7.9l8.91,12.6c1.98,2.8,5.07,4.59,8.48,4.91l33.36,3.17c3.4.33,6.78-.85,9.26-3.23l11.13-10.69c2.03-1.95,3.29-4.56,3.55-7.36l3.05-32.1-76.8-7.3Z"/>
              </g>
              <g>
                <path class="cls-2" d="M351.99,642.07c-36.27-65.83,25.17-151.48,99.15-138.21,48.13,6.9,83.4,48.9,82.11,97.3-.48,20.42-7.69,40.61-20.35,56.65-21.18,27.23-34.95,27.11-41.07,61.6-.67,3.76-4.11,6.37-7.91,6.01-25.81,1.12-51.34-1.33-76.6-7.28-3.8-.36-6.68-3.58-6.63-7.39h0c.49-34.99-12.57-37.28-28.41-68.14-.09-.18-.18-.36-.28-.54Z"/>
                <path d="M451.92,727.18c-21.73,0-43.5-2.53-64.86-7.56-4.49-.48-7.94-4.37-7.88-8.9.32-23.36-5.45-31.76-14.19-44.48-4.2-6.11-8.96-13.03-14.05-22.95l-.27-.52c-17.05-30.96-13.86-69.41,8.34-100.35,22.2-30.94,57.6-46.28,92.39-40.03,48.81,7,84.66,49.49,83.34,98.82-.49,20.84-7.84,41.27-20.68,57.54-6.9,8.87-12.97,14.81-18.33,20.06-11.07,10.84-18.39,18-22.45,40.87-.79,4.46-4.91,7.62-9.42,7.25-3.98.17-7.97.26-11.96.26ZM436.02,504.02c-28.62,0-56.23,14.58-74.58,40.15-21.52,29.99-24.64,67.23-8.14,97.17l.3.58c5.01,9.75,9.71,16.59,13.85,22.62,8.74,12.72,15.06,21.91,14.72,46.22-.04,3.01,2.27,5.6,5.27,5.88l.2.03c25.08,5.91,50.71,8.35,76.2,7.24h.1s.1,0,.1,0c3,.28,5.76-1.81,6.29-4.78,4.23-23.82,12.23-31.65,23.3-42.49,5.29-5.18,11.29-11.05,18.07-19.77,12.45-15.77,19.56-35.57,20.04-55.76,1.28-47.81-33.47-88.99-80.82-95.78-4.97-.89-9.95-1.33-14.9-1.33Z"/>
              </g>
              <path d="M440.31,725.76l-2.99-.29c.28-2.93,5.55-56.65,15.27-87.17-6.71.31-15.3-.35-26.29-2.63-3.4-.7-6.48-1.48-9.27-2.3.7,4.26,1.07,9.25.97,15.06-1.01,62.26-2.41,74.6-2.47,75.09l-2.98-.35c.01-.12,1.44-12.85,2.45-74.79.1-6.37-.36-11.66-1.2-16.03-15.34-5.17-20.41-11.94-19.71-16.83.46-3.2,3.33-5.24,7.01-4.95,4.83.38,12.06,5.2,15.28,19.45,3.07.97,6.57,1.88,10.53,2.7,10.99,2.28,19.81,2.94,26.7,2.5,2.68-7.71,5.67-13.58,8.98-16.19,4.83-3.83,9.09-3.19,11.47-1.31,2.82,2.23,3.55,6.24,1.81,9.97-1.22,2.62-5.66,8.93-20.15,10.37-9.75,29.97-15.33,86.96-15.4,87.68ZM469.62,619.22c-1.56,0-3.35.74-5.16,2.17-2.77,2.19-5.33,7.06-7.67,13.55,9.35-1.16,14.53-4.57,16.36-8.5,1.14-2.45.76-5-.95-6.35-.73-.58-1.61-.87-2.59-.87ZM400.43,613.56c-1.82,0-3.15.93-3.36,2.4-.45,3.15,3.77,8.47,15.95,12.94-2.98-11.2-8.63-15.03-12.15-15.31-.15-.01-.3-.02-.44-.02Z"/>
              <path class="cls-2" d="M468.29,745.39c-.11,0-.22-.01-.33-.04l-87.42-19.47c-.81-.18-1.32-.98-1.14-1.79.18-.81.99-1.31,1.79-1.14l87.42,19.47c.81.18,1.32.98,1.14,1.79-.16.7-.78,1.17-1.46,1.17Z"/>
              <path class="cls-2" d="M467.43,754.51c-.11,0-.22-.01-.33-.04l-87.42-19.47c-.81-.18-1.32-.98-1.14-1.79.18-.81.98-1.31,1.79-1.14l87.42,19.47c.81.18,1.32.98,1.14,1.79-.16.7-.78,1.17-1.46,1.17Z"/>
              <path class="cls-2" d="M466.56,763.62c-.11,0-.22-.01-.33-.04l-87.42-19.47c-.81-.18-1.32-.98-1.14-1.79.18-.81.99-1.31,1.79-1.14l87.42,19.47c.81.18,1.32.98,1.14,1.79-.16.7-.78,1.17-1.46,1.17Z"/>
              <path class="cls-2" d="M461.58,771.81c-.11,0-.22-.01-.33-.04l-83.31-18.55c-.81-.18-1.32-.98-1.14-1.79.18-.81.99-1.31,1.79-1.14l83.31,18.55c.81.18,1.32.98,1.14,1.79-.16.7-.78,1.17-1.46,1.17Z"/>
            </g>
          </g>
          <g>
            <rect x="563.31" y="595.36" width="3" height="30.89" transform="translate(-96.72 1115.27) rotate(-84.57)"/>
            <rect x="538.36" y="544.01" width="30.89" height="3" transform="translate(-176.71 279.75) rotate(-24.58)"/>
            <rect x="496.17" y="492.97" width="30.89" height="3" transform="translate(-187.85 624.81) rotate(-54.58)"/>
            <rect x="434.12" y="469.85" width="30.89" height="3" transform="translate(-62.25 874.25) rotate(-84.56)"/>
            <rect x="382.77" y="466.91" width="3" height="30.89" transform="translate(-165.76 203.44) rotate(-24.57)"/>
            <rect x="331.72" y="509.09" width="3" height="30.89" transform="translate(-287.36 491.96) rotate(-54.57)"/>
            <rect x="308.61" y="571.15" width="3" height="30.89" transform="translate(-303.21 839.79) rotate(-84.57)"/>
          </g>
        </g>
        <g class="cls-7">
          <g>
            <g>
              <g>
                <path class="cls-6" d="M646.74,983.54c1.02.24,2.03.5,3,.76.99.28,1.97.57,2.93.9,2.44.81,4.72,1.76,6.84,2.87.33.16.67.34,1,.54.4.23.81.45,1.2.7.37.23.74.45,1.09.69.02,0,.03.02.05.03.36.24.72.49,1.08.73,2.15,1.56,4.05,3.35,5.68,5.37.25.3.5.6.72.91,1.53,2.07,2.81,4.39,3.78,6.99.1.26.19.51.28.76.11.29.21.59.3.9.13.38.25.77.36,1.17.22.82.44,1.66.62,2.55.09.39.16.78.22,1.17.08.39.13.78.19,1.19.06.4.12.81.17,1.23,1.95,16.36,14.53,24.23,18.57,40.34.36,1.36.65,2.77.85,4.27,3.48,24.85-3.55,29.01-9.91,49.69-2.2,7.16,5.01,32.31,13.83,58.38,3.28.66,6.58,1.23,9.73,1.59,6.82.86,13.4,1.16,19.69,1.05,12.68-.14,14.27-59.2,5.84-61.35-4.25-1.04-8.16-2.34-11.7-3.7-.86-.36-1.78-.66-2.55-1.05-.79-.39-1.57-.75-2.37-1.09l-2.09-1.16c-.73-.34-1.2-.8-1.8-1.16-2.22-1.54-3.37-6.81-3.37-6.81l-.77-2.72-.39-1.35c-.12-.48-.21-1.01-.33-1.51l-.66-3.03-.72-3-.6-3.24c-.37-2.19-.84-4.24-1.17-6.52-.5-2.85-1.31-10.22-2.33-20.5-.58-5.84-1.23-12.6-1.93-20.04-2.07-21.99-18.07-38.92-43.45-44.46,0,0-4.8-1.01-11.9-2.1Z"/>
                <path d="M726.67,1169.86c-5.9,0-11.79-.36-17.52-1.08-2.87-.33-6.1-.86-9.84-1.61l-.85-.17-.28-.82c-11.31-33.43-15.84-52.83-13.84-59.3,1.81-5.88,3.68-10.45,5.32-14.49,4.21-10.29,6.98-17.1,4.54-34.56-.2-1.42-.47-2.76-.82-4.1-1.81-7.23-5.46-12.85-9-18.28-4.19-6.45-8.52-13.11-9.61-22.26-.04-.41-.1-.8-.16-1.19-.06-.38-.11-.75-.18-1.12-.06-.41-.13-.76-.21-1.12-.18-.89-.38-1.7-.6-2.49-.1-.38-.2-.72-.32-1.06-.11-.37-.2-.64-.3-.89-.09-.25-.17-.48-.27-.71-.92-2.44-2.12-4.67-3.6-6.67-.21-.3-.43-.57-.66-.83-1.54-1.91-3.36-3.63-5.43-5.13l-1.08-.73c-.34-.23-.68-.44-1.03-.65-.41-.27-.78-.47-1.15-.68-.33-.2-.65-.36-.95-.51-2.03-1.07-4.2-1.97-6.64-2.78-.95-.33-1.9-.6-2.87-.88-.94-.26-1.93-.51-2.93-.75l.57-2.94c7.05,1.09,11.93,2.1,11.97,2.11,25.79,5.62,42.47,22.74,44.64,45.79.7,7.44,1.35,14.2,1.93,20.03,1.1,11.12,1.86,17.8,2.31,20.4.2,1.4.45,2.68.69,3.95.16.85.33,1.7.48,2.58l.6,3.22,1.37,5.98c.05.22.1.47.15.71.05.26.1.51.17.76l1.14,4.02c.45,2.03,1.6,5.15,2.79,5.98.18.11.43.28.68.46.31.22.58.42.91.57l2.17,1.2c.69.29,1.49.66,2.3,1.06.46.23.96.42,1.47.62.34.13.68.26,1.01.4,3.93,1.52,7.7,2.71,11.47,3.63,7.07,1.8,7.07,26.94,5.51,40.01-1.08,9.04-4.04,24.22-11.68,24.3-.79.01-1.58.02-2.38.02ZM700.74,1164.4c3.3.65,6.18,1.11,8.76,1.4,6.38.8,12.93,1.15,19.5,1.04,3.74-.04,7.17-8.54,8.74-21.66,2.3-19.24-.32-35.99-3.25-36.74-3.88-.95-7.77-2.18-11.87-3.76-.34-.14-.65-.26-.96-.38-.61-.23-1.2-.47-1.73-.73-.75-.37-1.51-.72-2.29-1.06l-2.21-1.22c-.49-.23-.92-.53-1.29-.81-.18-.13-.36-.26-.55-.38-2.71-1.88-3.94-7.18-4.07-7.77l-1.13-3.97c-.08-.33-.15-.63-.21-.93-.04-.22-.09-.44-.14-.65l-1.38-6.02-.62-3.32c-.15-.87-.31-1.7-.47-2.54-.25-1.32-.51-2.64-.71-4.05-.46-2.63-1.22-9.38-2.33-20.57-.58-5.84-1.23-12.6-1.94-20.04-1.91-20.32-15.91-35.75-37.77-42,.14.09.28.17.42.27h.17l.37.36.96.66c2.32,1.69,4.33,3.59,6.02,5.68.26.3.52.64.77.99,1.63,2.2,2.96,4.67,3.96,7.33.1.24.2.51.3.79.11.3.23.64.33.99.12.32.25.76.37,1.21.23.84.45,1.71.63,2.63.09.39.17.81.24,1.24.07.35.13.77.2,1.19.06.42.13.85.17,1.29,1,8.43,4.96,14.52,9.15,20.96,3.67,5.64,7.46,11.48,9.39,19.17.38,1.44.67,2.89.88,4.43,2.56,18.26-.5,25.75-4.73,36.11-1.62,3.98-3.46,8.48-5.23,14.24-1.21,3.94.16,16.98,13.54,56.64Z"/>
              </g>
              <g>
                <path class="cls-6" d="M505.71,1092.25l.22,3.74,3.9,62.75,1.67,89.01,213.55-13.27s-14.07-35.15-25.45-68.76c-8.82-26.07-16.03-51.22-13.83-58.38,6.36-20.69,13.4-24.84,9.91-49.69-.21-1.5-.49-2.91-.85-4.27-4.03-16.11-16.62-23.97-18.57-40.34-2.04-17.15-12.86-25.64-29.59-29.49-8.52-1.95-18.57-2.72-29.78-2.79-.71-.02-1.43-.02-2.15-.02-.49,0-.98,0-1.47.01-3.01.01-6.09.06-9.25.15,0,0-.43.03-1.28.09-1.98.18-6.15.6-11.84,1.56-.1.02-.22.03-.33.06-85.71.46-88.2,56.31-84.87,109.65Z"/>
                <path d="M510.03,1249.33l-1.69-90.58-4.12-66.41c-1.95-31.17-2.29-66.27,18.37-88.39,14.19-15.18,36.38-22.66,67.83-22.85.09-.02.17-.03.26-.04,4.16-.7,8.18-1.23,11.94-1.57l1.31-.09c3.11-.09,6.24-.14,9.35-.16,1.19-.02,2.46-.02,3.66,0,12.27.08,22.12,1.01,30.08,2.83,19,4.38,28.77,14.15,30.75,30.77,1.01,8.45,4.96,14.53,9.15,20.98,3.67,5.64,7.46,11.48,9.39,19.17.38,1.44.67,2.89.88,4.43,2.56,18.26-.5,25.75-4.73,36.11-1.62,3.98-3.46,8.48-5.23,14.24-1.22,3.97.18,17.16,13.82,57.46,11.24,33.19,25.29,68.33,25.43,68.68l.77,1.93-217.19,13.5ZM614.74,982.22c-.48,0-.97,0-1.45.01-3.1.01-6.21.07-9.23.15l-1.21.09c-3.65.33-7.6.85-11.69,1.54l-.57.08c-30.67.17-52.19,7.33-65.81,21.9-19.85,21.24-19.48,55.61-17.57,86.15h0s.22,3.74.22,3.74l3.9,62.74,1.64,87.51,209.93-13.05c-3.09-7.82-14.96-38.1-24.72-66.91-11.31-33.43-15.84-52.83-13.84-59.3,1.81-5.88,3.68-10.46,5.32-14.49,4.21-10.29,6.98-17.1,4.54-34.56-.2-1.42-.47-2.76-.82-4.1-1.81-7.23-5.46-12.85-9-18.28-4.19-6.45-8.52-13.11-9.61-22.26-1.81-15.19-10.84-24.15-28.44-28.2-7.74-1.77-17.37-2.67-29.45-2.75-.72-.02-1.43-.02-2.14-.02Z"/>
              </g>
              <g>
                <g>
                  <path class="cls-2" d="M586.16,937.12l55.24,9.5-7.33,20.93-.02.07-2.03,5.77-1.93,5.54-.41,1.15-2.26,5.03s-2.15,8.66-19.55,8.66-23.58-8.51-23.58-8.51l1.85-48.13Z"/>
                  <path d="M607.89,995.25c-17.95,0-24.52-8.75-24.79-9.13l-.31-.42,1.93-50.36,58.68,10.09-12.3,35.13-2.26,5.05c-.41,1.31-3.67,9.64-20.96,9.64ZM585.84,984.72c1.41,1.55,7.79,7.53,22.06,7.53,15.82,0,18.01-7.23,18.1-7.54l.08-.23,2.26-5.03,11.08-31.66-51.81-8.91-1.76,45.84Z"/>
                </g>
                <g>
                  <path class="cls-2" d="M584.39,920.21c-1.22,25.95,13.06,47.38,37.96,54.81,19.06,5.69,33.78-2.3,56.03-50.4,10.91-23.58-18.83-47.98-44.79-49.2-25.95-1.22-47.98,18.83-49.2,44.79Z"/>
                  <path d="M632.27,978.15c-3.38,0-6.81-.63-10.36-1.69-25.35-7.56-40.3-29.14-39.03-56.32h0c1.25-26.74,24.02-47.45,50.77-46.22,17.13.8,35.61,11.34,43.93,25.06,5.31,8.74,6.05,17.83,2.15,26.26-18.92,40.91-32.74,52.9-47.46,52.9ZM585.88,920.28c-1.21,25.73,12.93,46.15,36.89,53.3,17.42,5.2,31.88-1.25,54.24-49.59,4.38-9.46,1.33-17.97-1.99-23.45-7.84-12.93-25.3-22.86-41.51-23.62-25.09-1.19-46.45,18.27-47.63,43.36h0Z"/>
                </g>
                <path d="M625.55,988.16s1.23-1.02,1.89-3.07c.72-2.23,3.91-8.54,3.91-8.54,0,0-29.83-3.51-36.78-23.44,0,0-5.31,24.55,30.97,35.06Z"/>
                <path d="M583.62,909.16s58.61,19.5,90.05-11.94c0,0-19.99,22.7-33.82,20.28,0,0,19.61,6.08,33.82-16.23,0,0,3.94,20.52,14.14,24.71,0,0,9.32-57.16-39.93-64.26-49.25-7.1-61.88,24.88-64.27,47.43Z"/>
                <path d="M688.42,919.38s-2.21,25.69-12.8,33.73c-10.59,8.03-11.79,12.33-11.79,12.33,0,0-.68-4.94,6.5-24.56,7.19-19.62,1.77-35.36,3.34-43.65,1.57-8.29,16.32,12.04,14.75,22.16Z"/>
                <path d="M641.41,913.46s-4.19,2.09-19.4,3.99c-15.21,1.9-13.88,12.93-13.6,17.11.29,4.18-5.23-6.46,0-17.49,5.23-11.03,4.42-15.21,4.42-15.21l28.58,11.6Z"/>
                <path d="M612.82,913.27s-16.66,5.5-16.67,25.57c-.01,20.07,13.41,58.85-1.86,66.84,0,0,11.26-12.17-1.62-31.94-12.89-19.77-15.53-59.4-3.82-85.21,11.7-25.81,23.97,24.75,23.97,24.75Z"/>
                <path d="M612.82,864.55s4.99-20.11-24.67-23.53c-29.66-3.42-25.86,69.21-46.77,72.25,0,0,2,11.97,21.3-5.32,19.29-17.3,23.58-49.44,40.69-39.17,17.11,10.27,9.46-4.23,9.46-4.23Z"/>
              </g>
              <path d="M575.91,1071.87s5.46,58.02,61.04,82.76c0,0-43.49-7.05-55.81-33.24s-5.22-49.51-5.22-49.51Z"/>
              <path d="M631.75,1192.9l-1.33-.08c-3.48-.2-85.64-5.45-109.58-52.32-23.78-46.55-14.78-102.13-14.69-102.69l2.96.5c-.09.55-8.92,55.18,14.4,100.83,21.55,42.18,94.95,49.71,105.76,50.59l5.94-33.81c-6.94-.99-34.22-6.11-50.65-26.82-10.24-12.9-14.15-29.31-11.64-48.8l2.98.38c-2.4,18.64,1.3,34.3,11,46.53,17.74,22.37,49.9,25.89,50.22,25.92l1.6.16-6.96,39.6Z"/>
              <path d="M630.5,1191.32s-112.18,15.96-122.79-46.44c0,0-3.67-71.11-1.88-70.34,1.41.6,1.18,69.47,43.49,93.11,42.31,23.64,81.18,23.67,81.18,23.67Z"/>
            </g>
            <g>
              <g>
                <path class="cls-2" d="M713.97,1191.38l-83.47-.06c1.75,0,3.35.6,4.51,1.58,1.16.96,1.87,2.3,1.87,3.78,0,2.95-2.88,5.37-6.39,5.37l171.65.11c3.51,0,6.38-2.41,6.39-5.37,0-1.48-.73-2.82-1.87-3.78-1.16-.98-2.74-1.58-4.51-1.58l-88.18-.06Z"/>
                <path d="M802.15,1203.66h0l-171.65-.11h0v-3h0c1.34,0,2.6-.43,3.54-1.22.87-.73,1.34-1.67,1.34-2.64,0-.98-.47-1.91-1.33-2.62-.94-.8-2.2-1.23-3.54-1.23h0v-3h0l171.65.11c2.05,0,4,.69,5.47,1.93,1.55,1.31,2.4,3.06,2.4,4.93,0,1.88-.86,3.63-2.41,4.94-1.48,1.24-3.42,1.93-5.47,1.93ZM637.01,1200.55l165.13.11h0c1.34,0,2.6-.43,3.54-1.22.87-.73,1.34-1.67,1.34-2.65,0-.97-.47-1.9-1.34-2.63-.94-.79-2.19-1.22-3.54-1.23l-165.12-.11c.88,1.12,1.35,2.45,1.35,3.86,0,1.4-.48,2.74-1.37,3.87Z"/>
              </g>
              <g>
                <path class="cls-2" d="M536.93,1191.26c-2.95,0-5.37,2.4-5.37,5.35,0,1.48.59,2.82,1.57,3.8.98.96,2.32,1.58,3.79,1.58l94.66.06c2.95,0,5.37-2.41,5.37-5.37,0-1.48-.59-2.82-1.57-3.78-.98-.98-2.32-1.58-3.79-1.58l-92.67-.06h-1.99Z"/>
                <path d="M631.58,1203.55h0l-94.66-.06c-1.81,0-3.53-.72-4.85-2.01-1.31-1.31-2.02-3.03-2.02-4.86,0-1.83.72-3.55,2.02-4.85,1.3-1.29,3.02-2.01,4.85-2.01h0l94.66.06c1.83,0,3.56.72,4.85,2.02,1.3,1.28,2.01,3,2.01,4.84,0,1.83-.72,3.55-2.02,4.85-1.3,1.3-3.02,2.01-4.85,2.01ZM536.93,1192.76c-1.03,0-2,.4-2.73,1.13-.73.73-1.14,1.7-1.14,2.72,0,1.03.4,2,1.13,2.73.74.73,1.71,1.14,2.73,1.14l94.66.06h0c1.03,0,2-.4,2.73-1.14.73-.73,1.14-1.7,1.14-2.73,0-1.03-.4-2-1.13-2.71-.74-.74-1.71-1.15-2.74-1.15l-94.66-.06h0Z"/>
              </g>
              <g>
                <path class="cls-6" d="M625.92,1188.51c1.45,1.77,3.58,2.8,5.87,2.81h6.77c-2.29,0-4.42-1.03-5.87-2.8-1.45-1.79-2-4.08-1.52-6.33l22.49-107.16c.75-3.49,3.87-6.02,7.44-6.02h-6.77c-3.56,0-6.69,2.53-7.44,6.01l-22.49,107.16c-.48,2.25.07,4.54,1.52,6.33Z"/>
                <path d="M638.56,1192.82h-6.77c-2.73,0-5.29-1.23-7.03-3.36h0c-1.73-2.14-2.39-4.91-1.82-7.59l22.49-107.16c.89-4.18,4.64-7.21,8.9-7.21h6.77s0,0,0,0v3h0c-2.86,0-5.37,2.03-5.97,4.83l-22.49,107.15c-.38,1.8.06,3.65,1.22,5.08,1.16,1.43,2.88,2.25,4.7,2.25v3ZM627.09,1187.57c1.17,1.43,2.88,2.25,4.71,2.25h.04c-.1-.12-.21-.23-.3-.35-1.73-2.14-2.4-4.91-1.83-7.59l22.49-107.16c.34-1.61,1.11-3.05,2.17-4.22h-.04c-2.86,0-5.37,2.03-5.97,4.83l-22.49,107.15c-.38,1.8.06,3.64,1.22,5.08Z"/>
              </g>
              <g>
                <path class="cls-2" d="M632.69,1188.52c1.45,1.77,3.58,2.8,5.87,2.81l162.9.11c3.56,0,6.69-2.53,7.44-6.02l22.49-107.16c.46-2.25-.09-4.54-1.54-6.33-1.43-1.77-3.58-2.8-5.87-2.81l-162.88-.11c-3.56,0-6.69,2.53-7.44,6.02l-22.49,107.16c-.48,2.25.07,4.54,1.52,6.33Z"/>
                <path d="M801.46,1192.93h0l-162.9-.11c-2.73,0-5.29-1.23-7.03-3.36h0c-1.73-2.14-2.39-4.91-1.82-7.59l22.49-107.16c.89-4.18,4.64-7.21,8.9-7.21h0l162.88.11c2.75,0,5.32,1.23,7.04,3.36,1.72,2.13,2.39,4.89,1.84,7.57l-22.49,107.17c-.89,4.18-4.64,7.21-8.9,7.21ZM633.85,1187.57c1.17,1.43,2.88,2.25,4.7,2.25l162.9.11h0c2.86,0,5.37-2.03,5.97-4.83l22.49-107.15c.37-1.8-.08-3.65-1.24-5.08-1.15-1.43-2.86-2.25-4.7-2.25l-162.88-.11h0c-2.86,0-5.37,2.03-5.97,4.83l-22.49,107.15c-.38,1.8.06,3.65,1.22,5.08Z"/>
              </g>
              <g>
                <path class="cls-6" d="M722.44,1130.21c0,4.88,3.95,8.84,8.83,8.84,4.88,0,8.84-3.95,8.84-8.83,0-4.88-3.95-8.84-8.83-8.84-4.88,0-8.84,3.95-8.84,8.83Z"/>
                <path d="M731.27,1140.55h0c-2.76,0-5.36-1.08-7.31-3.03-1.95-1.95-3.02-4.55-3.02-7.31,0-2.76,1.08-5.35,3.03-7.31,1.95-1.95,4.55-3.02,7.3-3.02h0c2.76,0,5.36,1.08,7.31,3.03,1.95,1.95,3.02,4.55,3.02,7.31,0,5.7-4.64,10.33-10.34,10.33ZM731.27,1122.88c-4.04,0-7.33,3.29-7.34,7.33,0,4.04,3.29,7.34,7.33,7.34h0c4.04,0,7.33-3.29,7.34-7.33,0-4.04-3.29-7.34-7.33-7.34h0Z"/>
              </g>
            </g>
            <g>
              <g>
                <g>
                  <path class="cls-2" d="M814.19,1481.68s3.5,20.99,9.99,21.5h-70.83l-.95-21.5h61.8Z"/>
                  <path d="M824.18,1504.68h-72.27l-1.09-24.5h64.63l.21,1.25c1.37,8.24,4.96,19.96,8.63,20.25l-.12,3ZM754.79,1501.68h64.72c-3.74-4.9-5.82-14.44-6.57-18.5h-58.97l.82,18.5Z"/>
                </g>
                <g>
                  <path class="cls-6" d="M845.71,1508.62l-17.06-4.32c-3.58-.91-6.67-3.15-8.64-6.26l-4-8.34-28.43,13.19-34.76-11.85.26,5.97,18.53,5.88h-18.49c-3.09,0-5.59,2.5-5.59,5.59v8.51c0,3.29,2.67,5.96,5.96,5.96h21.17l5.18-7.86,10.03,7.86h66.56c1.31,0,2.24-1.27,1.84-2.52h0c-1.86-5.84-6.61-10.31-12.56-11.81Z"/>
                  <path d="M856.42,1524.46h-67.08l-9.15-7.17-4.73,7.17h-21.98c-4.11,0-7.46-3.35-7.46-7.46v-8.51c0-3.91,3.18-7.09,7.09-7.09h8.81l-10.3-3.27-.41-9.21,36.27,12.36,29.22-13.56,4.61,9.59c1.78,2.77,4.51,4.73,7.7,5.54l17.06,4.32c6.49,1.64,11.58,6.43,13.62,12.81.34,1.06.16,2.18-.5,3.07-.65.9-1.66,1.41-2.77,1.41ZM790.38,1521.46h66.04c.19,0,.3-.11.35-.18.05-.07.12-.2.06-.39-1.72-5.38-6.02-9.43-11.49-10.81l-17.06-4.32c-3.96-1-7.35-3.46-9.54-6.92l-.08-.15-3.36-7.01-27.63,12.83-33.25-11.33.12,2.72,26.76,8.49h-28.17c-2.26,0-4.09,1.84-4.09,4.09v8.51c0,2.46,2,4.46,4.46,4.46h20.36l5.64-8.54,10.9,8.54Z"/>
                </g>
              </g>
              <g>
                <path class="cls-2" d="M784.61,1319.3l34.48,162.38h-69.98l-56.69-171.59s20.32-9.27,49-21.44c28.68-12.17,35.9,12.62,43.19,30.65Z"/>
                <path d="M820.94,1483.18h-72.92l-57.45-173.9,1.22-.56c.2-.09,20.67-9.42,49.04-21.45,9.04-3.83,16.55-4.39,22.98-1.69,10.92,4.58,16.09,17.7,20.65,29.28.52,1.32,1.03,2.62,1.54,3.88l.08.25,34.87,164.19ZM750.19,1480.18h67.05l-34.07-160.44c-.5-1.23-1-2.5-1.5-3.79-4.34-11.02-9.26-23.52-19.02-27.61-5.64-2.37-12.39-1.82-20.64,1.69-24.39,10.35-42.93,18.69-47.74,20.87l55.92,169.28Z"/>
              </g>
              <g>
                <path class="cls-6" d="M820.79,1468.7h-75.72c-3.57,0-6.49,2.92-6.49,6.49h0c0,3.57,2.92,6.49,6.49,6.49h75.72c3.57,0,6.49-2.92,6.49-6.49h0c0-3.57-2.92-6.49-6.49-6.49Z"/>
                <path d="M820.79,1483.18h-75.72c-4.41,0-7.99-3.58-7.99-7.99s3.58-7.99,7.99-7.99h75.72c4.41,0,7.99,3.58,7.99,7.99s-3.58,7.99-7.99,7.99ZM745.07,1470.2c-2.75,0-4.99,2.24-4.99,4.99s2.24,4.99,4.99,4.99h75.72c2.75,0,4.99-2.24,4.99-4.99s-2.24-4.99-4.99-4.99h-75.72Z"/>
              </g>
              <polygon points="734.02 1291.49 800.37 1393.55 789.59 1342.77 734.02 1291.49"/>
            </g>
            <g>
              <g>
                <polygon class="cls-6" points="643.03 1366.17 297.28 1366.17 466.58 1304.26 812.33 1304.26 643.03 1366.17"/>
                <path d="M643.3,1367.67h-354.49l177.5-64.91h354.49l-177.5,64.91ZM305.75,1364.67h337.02l161.1-58.91h-337.02l-161.1,58.91Z"/>
              </g>
              <g>
                <polygon points="643.03 1684.73 297.28 1684.73 466.58 1622.82 812.33 1622.82 643.03 1684.73"/>
                <path d="M643.3,1686.23h-354.49l177.5-64.91h354.49l-177.5,64.91ZM305.75,1683.23h337.02l161.1-58.91h-337.02l-161.1,58.91Z"/>
              </g>
              <g>
                <rect class="cls-2" x="297.28" y="1366.17" width="340.16" height="318.56"/>
                <path d="M638.94,1686.23h-343.16v-321.56h343.16v321.56ZM298.78,1683.23h337.16v-315.56h-337.16v315.56Z"/>
              </g>
              <g>
                <polygon class="cls-1" points="812.33 1304.26 812.33 1622.82 637.44 1684.73 637.44 1366.17 812.33 1304.26"/>
                <path d="M635.94,1686.85v-321.75l1-.35,176.89-62.62v321.74l-1,.35-176.89,62.62ZM638.94,1367.23v315.38l171.89-60.85v-315.38l-171.89,60.85Z"/>
              </g>
            </g>
            <g>
              <g>
                <g>
                  <path class="cls-2" d="M931.26,1384.27s15.59,16.32,21.3,13.17l-59.17,38.93-12.61-17.44,50.49-34.67Z"/>
                  <path d="M893.01,1438.42l-14.36-19.84,52.81-36.26.88.92c5.97,6.24,16.29,14.67,19.49,12.9l1.55,2.57-60.37,39.72ZM882.89,1419.31l10.87,15.03,54.11-35.6c-6.11-2.12-13.74-9.41-16.8-12.51l-48.18,33.08Z"/>
                </g>
                <g>
                  <path class="cls-6" d="M973.53,1390.16l-16.62,5.77c-3.49,1.21-7.3,1.04-10.66-.48l-7.93-4.77-16.5,26.65-35.55,9.21,3.5,4.84,18.71-5.27-15.45,10.16c-2.58,1.7-3.3,5.17-1.6,7.75l4.68,7.11c1.81,2.75,5.5,3.51,8.25,1.7l17.68-11.63v-9.41s12.71,1.05,12.71,1.05l55.61-36.58c1.09-.72,1.17-2.3.15-3.12h0c-4.77-3.86-11.19-4.98-16.98-2.97Z"/>
                  <path d="M901.1,1455.31c-2.43,0-4.81-1.18-6.24-3.36l-4.68-7.11c-1.04-1.58-1.4-3.48-1.02-5.33.38-1.86,1.47-3.45,3.05-4.49l7.36-4.84-10.4,2.93-5.4-7.47,37.1-9.61,16.96-27.39,9.12,5.48c3.01,1.33,6.37,1.48,9.48.4l16.62-5.77c6.32-2.2,13.21-.99,18.42,3.22.86.7,1.33,1.73,1.27,2.84-.05,1.11-.62,2.09-1.54,2.7l-56.04,36.87-11.59-.96v8.59s-18.37,12.08-18.37,12.08c-1.26.83-2.68,1.23-4.09,1.23ZM917.39,1422.04l-23.53,15.48c-.91.6-1.54,1.52-1.76,2.59-.22,1.07-.01,2.16.59,3.08l4.68,7.11c1.35,2.05,4.12,2.62,6.17,1.27l17.01-11.19v-10.23s13.81,1.14,13.81,1.14l55.17-36.3c.16-.11.19-.26.2-.34,0-.08-.01-.24-.16-.36-4.4-3.55-10.21-4.57-15.55-2.72h0l-16.62,5.77c-3.86,1.34-8.05,1.16-11.77-.53l-.16-.08-6.66-4-16.03,25.9-34.01,8.81,1.6,2.21,27.02-7.61Z"/>
                </g>
              </g>
              <g>
                <path class="cls-2" d="M513.54,1275.78h.01c8.36,48.3,32.44,60.11,96.19,52.74,79.92-9.24,124.27-37.04,124.27-37.04l138.76,128.05,59.34-42.04s-35.87-45.62-82.74-101.97c-49.6-59.62-60.21-92.89-153.75-70.48-57.73,13.83-102.13,14.62-143.94,24.16h-.01c-24.12,5.5-39.56,9.35-39.56,9.35-1.14,12.36-.69,25,1.42,37.23Z"/>
                <path d="M872.65,1421.47l-.89-.82-137.94-127.29c-7.03,4.09-51.03,28.24-123.91,36.66-11.34,1.31-21.44,2-30.42,2-42.57,0-60.12-15.57-67.2-54.74h0l-.23-1.24c-2.13-12.28-2.61-24.94-1.44-37.62l.1-1.06,1.03-.26c.15-.04,15.73-3.91,39.58-9.35l.18-.04c18.66-4.25,37.97-6.78,58.41-9.46,25.05-3.29,53.44-7.01,85.35-14.66,82.83-19.85,101.38,3.51,138.34,50.03,5.29,6.66,10.75,13.54,16.91,20.95,46.36,55.72,82.41,101.55,82.77,102l.97,1.24-61.62,43.65ZM734.19,1289.61l.84.78,137.87,127.23,57.06-40.42c-6.07-7.69-39.66-50.11-81.74-100.7-6.18-7.43-11.66-14.33-16.96-21-36.16-45.53-54.31-68.38-135.29-48.98-32.06,7.68-60.54,11.42-85.66,14.71-20.43,2.68-39.72,5.21-58.29,9.45l-.18.04c-20.25,4.62-34.48,8.1-38.32,9.05-.99,11.63-.55,23.24,1.29,34.53h0l.22,1.24c8.11,46.91,30.2,58.94,94.54,51.51,78.61-9.09,123.21-36.54,123.65-36.82l.97-.61Z"/>
              </g>
              <g>
                <path class="cls-2" d="M513.54,1275.78h.01c49.48,3.15,38.13-46.58,38.13-46.58h-.01c-24.12,5.5-39.56,9.35-39.56,9.35-1.14,12.36-.69,25,1.42,37.23Z"/>
                <path d="M517.94,1277.43c-1.45,0-2.95-.05-4.48-.15l-1.18-.07-.22-1.17c-2.13-12.28-2.61-24.94-1.44-37.62l.1-1.06,1.03-.26c.15-.04,15.73-3.91,39.58-9.35l.33-.04h1.2l.28,1.17c.22.95,5.17,23.41-6.89,37.59-6.2,7.28-15.71,10.96-28.32,10.96ZM514.82,1274.35c13.29.62,23.07-2.69,29.14-9.82,9.41-11.05,7.39-28.39,6.54-33.52-19.53,4.47-33.23,7.81-36.98,8.74-.99,11.66-.55,23.29,1.31,34.6Z"/>
              </g>
              <g>
                <path class="cls-6" d="M927.48,1371l-61.46,44.23c-2.9,2.09-3.56,6.16-1.48,9.06h0c2.08,2.9,6.16,3.56,9.06,1.48l61.46-44.23c2.9-2.09,3.56-6.16,1.48-9.06h0c-2.09-2.9-6.16-3.56-9.06-1.48Z"/>
                <path d="M869.84,1428.49c-.43,0-.87-.04-1.31-.11-2.11-.34-3.96-1.48-5.2-3.21-1.24-1.73-1.74-3.84-1.39-5.95.34-2.11,1.49-3.96,3.21-5.2l61.46-44.23c3.58-2.57,8.58-1.76,11.15,1.82,2.57,3.57,1.76,8.58-1.82,11.15l-61.46,44.23c-1.37.98-2.98,1.5-4.64,1.5ZM928.36,1372.22l-61.46,44.23c-1.08.77-1.79,1.93-2,3.25-.22,1.32.09,2.64.87,3.72.77,1.08,1.93,1.79,3.25,2,1.32.22,2.64-.09,3.72-.87l61.46-44.23c2.23-1.61,2.74-4.73,1.14-6.97-1.61-2.24-4.73-2.75-6.97-1.14h0Z"/>
              </g>
            </g>
          </g>
        </g>
      </g>
    </g>
  </g>
</svg>