<?xml version="1.0" encoding="utf-8"?>
<!-- Generator: Adobe Illustrator 27.5.0, SVG Export Plug-In . SVG Version: 6.00 Build 0)  -->
<svg version="1.1" xmlns="http://www.w3.org/2000/svg" xmlns:xlink="http://www.w3.org/1999/xlink" x="0px" y="0px"
	 viewBox="0 0 500 500" style="enable-background:new 0 0 500 500;" xml:space="preserve">
<g id="Shadows">
	<path id="Shadow_00000146483542651439849530000008797869657359399335_" style="fill:#EBEBEB;" d="M456.284,386.996l-255.648-147.56
		c-4.24-2.448-11.165-2.443-15.403,0.001L40.819,322.622c-5.748,3.313-5.755,8.749-0.013,12.064L294.62,481.188
		c3.736,2.157,9.849,2.157,13.589-0.008l148.074-85.29C460.521,393.446,460.524,389.444,456.284,386.996z"/>
</g>
<g id="Paper_Planes">
	<g id="Paper_Plane_3_">
		<g>
			<g id="XMLID_00000098210381494448374420000015568216360178497429_">
				<polygon style="fill:#BA68C8;" points="179.292,449.636 112.682,435.586 91.932,452.105 				"/>
			</g>
			<g id="XMLID_00000080195948432233139870000017385461502481815960_" style="opacity:0.15;">
				<polygon style="fill:#FFFFFF;" points="179.292,449.636 112.682,435.586 91.932,452.105 				"/>
			</g>
			<g id="XMLID_00000010279182589276210840000000713387696770276993_">
				<polygon style="fill:#BA68C8;" points="179.292,449.636 118.327,428.524 124.126,412.736 				"/>
			</g>
			<g id="XMLID_00000013875389842123637720000013575101081681997485_" style="opacity:0.15;">
				<polygon style="fill:#FFFFFF;" points="179.292,449.636 118.327,428.524 124.126,412.736 				"/>
			</g>
			<g id="XMLID_00000150075455479886630770000006940552978197026745_">
				<polygon style="fill:#BA68C8;" points="118.327,428.524 121.721,437.492 179.292,449.636 				"/>
			</g>
			<g id="XMLID_00000105387792027582180610000016471622656694412735_" style="opacity:0.2;">
				<polygon points="118.327,428.524 121.721,437.492 179.292,449.636 				"/>
			</g>
		</g>
		<g>
			<g>
				<g>
					<path style="fill:#455A64;" d="M110.837,429.755c0.138-0.027,0.266-0.107,0.357-0.236c0.2-0.286,0.147-0.706-0.121-0.938
						c-0.485-0.419-0.964-0.841-1.441-1.266c-0.266-0.238-0.644-0.199-0.849,0.084c-0.204,0.282-0.155,0.702,0.11,0.938
						c0.481,0.429,0.966,0.855,1.453,1.279C110.492,429.744,110.671,429.788,110.837,429.755z"/>
				</g>
			</g>
			<g>
				<g>
					<path style="fill:#455A64;" d="M104.263,423.988c-0.91-0.901-1.8-1.814-2.675-2.739c-0.245-0.261-0.26-0.682-0.034-0.943
						c0.224-0.259,0.61-0.259,0.857-0.001c0.863,0.914,1.745,1.818,2.643,2.708c0.254,0.251,0.282,0.673,0.063,0.942
						c-0.089,0.11-0.206,0.177-0.331,0.201C104.607,424.192,104.413,424.137,104.263,423.988z M97.326,416.458
						c-0.829-0.991-1.639-1.996-2.425-3.012c-0.222-0.285-0.197-0.705,0.054-0.937c0.249-0.234,0.634-0.19,0.854,0.096
						c0.776,1.003,1.574,1.994,2.393,2.97c0.231,0.277,0.222,0.698-0.019,0.942c-0.085,0.084-0.186,0.136-0.291,0.156
						C97.693,416.712,97.477,416.638,97.326,416.458z M91.105,408.197c-0.728-1.083-1.438-2.188-2.112-3.285
						c-0.19-0.31-0.122-0.722,0.153-0.921c0.276-0.198,0.652-0.106,0.843,0.204c0.662,1.081,1.362,2.17,2.079,3.237
						c0.202,0.302,0.151,0.717-0.115,0.928c-0.072,0.059-0.155,0.096-0.239,0.112C91.493,408.515,91.252,408.415,91.105,408.197z
						 M85.782,399.221c-0.607-1.174-1.189-2.364-1.727-3.539c-0.153-0.333-0.038-0.731,0.26-0.886
						c0.297-0.16,0.664-0.012,0.816,0.321c0.531,1.154,1.102,2.325,1.699,3.479c0.168,0.325,0.07,0.729-0.219,0.902
						c-0.056,0.033-0.116,0.057-0.176,0.068C86.184,399.615,85.918,399.483,85.782,399.221z M81.533,389.603
						c-0.455-1.228-0.888-2.488-1.286-3.745c-0.112-0.352,0.053-0.725,0.369-0.834c0.306-0.105,0.662,0.088,0.773,0.439
						c0.391,1.235,0.816,2.473,1.263,3.679c0.127,0.345-0.019,0.729-0.328,0.856c-0.034,0.014-0.069,0.025-0.104,0.032
						C81.939,390.085,81.647,389.91,81.533,389.603z M78.5,379.484c-0.234-1.008-0.451-2.024-0.651-3.047l-0.159-0.839
						c-0.065-0.361,0.142-0.7,0.465-0.763c0.002,0,0.006-0.001,0.008-0.001c0.328-0.059,0.647,0.188,0.713,0.551l0.155,0.821
						c0.197,1.006,0.41,2.005,0.641,2.995c0.084,0.36-0.111,0.715-0.435,0.793c-0.008,0.002-0.016,0.003-0.024,0.005
						C78.897,380.06,78.581,379.834,78.5,379.484z M77.41,369.668c-0.332,0.029-0.633-0.245-0.673-0.611
						c-0.14-1.305-0.253-2.633-0.337-3.948c-0.024-0.368,0.229-0.677,0.562-0.687c0.334-0.011,0.623,0.277,0.647,0.645
						c0.083,1.295,0.193,2.603,0.331,3.884c0.037,0.346-0.172,0.651-0.472,0.709C77.449,369.663,77.429,369.667,77.41,369.668z
						 M76.823,359.22c-0.335-0.018-0.602-0.332-0.597-0.701c0.016-1.311,0.067-2.639,0.152-3.945
						c0.024-0.366,0.311-0.629,0.648-0.59c0.334,0.041,0.585,0.371,0.562,0.736c-0.084,1.282-0.134,2.584-0.15,3.87
						c-0.003,0.316-0.207,0.57-0.477,0.622C76.916,359.22,76.869,359.223,76.823,359.22z M77.592,348.851
						c-0.331-0.077-0.552-0.43-0.495-0.79c0.2-1.282,0.44-2.577,0.71-3.848c0.075-0.357,0.407-0.56,0.727-0.468
						c0.326,0.097,0.529,0.464,0.454,0.819c-0.265,1.246-0.5,2.515-0.696,3.772c-0.043,0.275-0.235,0.475-0.469,0.52
						C77.747,348.87,77.669,348.868,77.592,348.851z M79.83,338.801c-0.317-0.132-0.486-0.517-0.379-0.861
						c0.384-1.23,0.807-2.459,1.255-3.655c0.126-0.337,0.481-0.482,0.79-0.333c0.31,0.153,0.459,0.547,0.333,0.883
						c-0.44,1.172-0.855,2.377-1.232,3.582c-0.071,0.227-0.245,0.378-0.445,0.418C80.048,338.856,79.938,338.847,79.83,338.801z"/>
				</g>
			</g>
		</g>
	</g>
	<g id="Paper_Plane_2_">
		<g id="XMLID_00000013880963527179188930000007792323982135118746_">
			<polygon id="XMLID_00000119104345457801535180000000134249991198820738_" style="fill:#BA68C8;" points="446.273,233.738 
				409.364,196.815 430.937,238.18 			"/>
			<polygon id="XMLID_00000060728385722357555160000000360312093490844859_" style="opacity:0.15;fill:#FFFFFF;" points="
				446.273,233.738 409.364,196.815 430.937,238.18 			"/>
			<polygon id="XMLID_00000044890618704013107650000008803425679771107980_" style="fill:#BA68C8;" points="409.364,196.815 
				452.759,229.644 468.094,225.202 			"/>
			<polygon id="XMLID_00000030478632329927951450000013848286713415408315_" style="opacity:0.15;fill:#FFFFFF;" points="
				409.364,196.815 452.759,229.644 468.094,225.202 			"/>
			<polygon id="XMLID_00000125597570688486883470000011162406912263483834_" style="fill:#BA68C8;" points="452.759,229.644 
				446.575,241.402 446.273,233.738 409.364,196.815 			"/>
			<polygon id="XMLID_00000176747924101854270910000007449634583023538851_" style="opacity:0.2;" points="452.759,229.644 
				446.575,241.402 446.273,233.738 409.364,196.815 			"/>
			<polygon id="XMLID_00000078043269486224744950000009889438296440896445_" style="fill:#BA68C8;" points="446.575,241.402 
				441.161,235.219 446.273,233.738 			"/>
			<polygon id="XMLID_00000012469539619679132540000018219696419413737116_" style="opacity:0.2;" points="446.273,233.738 
				441.161,235.219 442.025,236.205 			"/>
		</g>
		<g>
			<g>
				<g>
					<path style="fill:#455A64;" d="M454.009,239.4c-0.132-0.001-0.266,0.049-0.375,0.151c-0.239,0.227-0.268,0.626-0.063,0.892
						c0.37,0.479,0.735,0.959,1.097,1.442c0.201,0.271,0.559,0.305,0.802,0.081c0.242-0.223,0.275-0.621,0.074-0.889
						c-0.365-0.488-0.734-0.972-1.106-1.456C454.327,239.475,454.169,239.401,454.009,239.4z"/>
				</g>
			</g>
			<g>
				<g>
					<path style="fill:#455A64;" d="M459.015,245.971c0.673,1.005,1.327,2.017,1.963,3.037c0.178,0.287,0.113,0.681-0.145,0.88
						c-0.256,0.198-0.613,0.125-0.793-0.16c-0.627-1.008-1.275-2.01-1.939-3.003c-0.188-0.28-0.135-0.676,0.118-0.884
						c0.103-0.085,0.224-0.125,0.344-0.125C458.735,245.718,458.905,245.805,459.015,245.971z M464.028,254.242
						c0.582,1.073,1.144,2.155,1.681,3.243c0.152,0.305,0.051,0.69-0.226,0.858c-0.275,0.17-0.622,0.057-0.773-0.249
						c-0.531-1.074-1.084-2.141-1.659-3.198c-0.162-0.299-0.075-0.688,0.194-0.868c0.094-0.062,0.197-0.091,0.299-0.09
						C463.735,253.938,463.921,254.046,464.028,254.242z M468.239,263.056c0.471,1.139,0.922,2.295,1.34,3.437
						c0.118,0.323-0.023,0.692-0.314,0.824c-0.293,0.131-0.624-0.024-0.743-0.347c-0.41-1.125-0.854-2.264-1.318-3.386
						c-0.131-0.317-0.006-0.692,0.28-0.838c0.078-0.041,0.161-0.06,0.242-0.059C467.94,262.689,468.144,262.826,468.239,263.056z
						 M471.486,272.362c0.342,1.201,0.658,2.412,0.936,3.6c0.08,0.337-0.102,0.684-0.407,0.771c-0.304,0.092-0.616-0.113-0.695-0.45
						c-0.275-1.168-0.585-2.359-0.921-3.539c-0.095-0.333,0.072-0.688,0.372-0.793c0.058-0.02,0.118-0.031,0.176-0.03
						C471.187,271.923,471.409,272.095,471.486,272.362z M473.618,282.064c0.191,1.222,0.356,2.47,0.489,3.708
						c0.038,0.347-0.185,0.662-0.498,0.703c-0.303,0.04-0.596-0.206-0.633-0.551c-0.131-1.216-0.293-2.443-0.48-3.643
						c-0.053-0.343,0.155-0.671,0.464-0.731c0.034-0.007,0.069-0.01,0.103-0.01C473.332,281.542,473.57,281.758,473.618,282.064z
						 M474.531,292.001c0.028,0.977,0.038,1.959,0.032,2.943l-0.01,0.807c-0.007,0.347-0.262,0.621-0.574,0.619
						c-0.002,0-0.005,0-0.008,0c-0.315-0.007-0.564-0.295-0.557-0.644l0.01-0.789c0.006-0.968-0.004-1.933-0.032-2.893
						c-0.01-0.349,0.236-0.641,0.551-0.653c0.008,0,0.015,0,0.023,0C474.271,291.393,474.521,291.661,474.531,292.001z
						 M473.7,301.292c0.313,0.035,0.54,0.346,0.508,0.692c-0.115,1.234-0.259,2.485-0.428,3.719
						c-0.046,0.345-0.339,0.584-0.649,0.531c-0.311-0.052-0.525-0.374-0.478-0.719c0.166-1.214,0.309-2.446,0.421-3.658
						c0.031-0.327,0.281-0.57,0.57-0.568C473.664,301.289,473.683,301.29,473.7,301.292z M472.287,311.075
						c0.307,0.08,0.495,0.421,0.422,0.76c-0.26,1.211-0.556,2.431-0.88,3.625c-0.091,0.334-0.406,0.524-0.71,0.425
						c-0.302-0.1-0.472-0.453-0.382-0.787c0.318-1.171,0.608-2.367,0.864-3.554c0.062-0.292,0.298-0.489,0.559-0.487
						C472.201,311.057,472.244,311.064,472.287,311.075z M469.632,320.531c0.292,0.133,0.43,0.501,0.311,0.824
						c-0.426,1.149-0.89,2.303-1.378,3.429c-0.137,0.316-0.482,0.443-0.761,0.297c-0.284-0.151-0.403-0.529-0.267-0.843
						c0.479-1.104,0.934-2.235,1.351-3.362c0.091-0.247,0.307-0.395,0.532-0.394C469.492,320.484,469.564,320.501,469.632,320.531z
						 M465.678,329.416c0.269,0.181,0.353,0.57,0.189,0.868c-0.586,1.067-1.208,2.125-1.847,3.148
						c-0.18,0.288-0.536,0.356-0.793,0.16c-0.259-0.199-0.322-0.593-0.143-0.88c0.627-1.002,1.237-2.04,1.811-3.085
						c0.109-0.197,0.297-0.305,0.491-0.303C465.486,329.325,465.586,329.354,465.678,329.416z"/>
				</g>
			</g>
		</g>
	</g>
</g>
<g id="Device">
	<g id="Mobile_00000178888720203994574030000015960439770342394030_">
		<g id="Mobile_00000151539601316439246860000015004452916415041964_">
			<g>
				<path style="fill:#37474F;" d="M198.086,155.754l259.951,204.198c6.525,5.125,5.778,10.559,5.179,15.433
					c-0.599,4.874-3.314,11.544-8.889,14.762l-142.713,82.396c-5.574,3.219-13.922,2.82-18.645-0.889L33.016,267.457
					c-4.723-3.71-5.18-9.572-4.581-14.446c0.599-4.874,2.716-12.532,8.291-15.751l142.714-82.396
					C185.015,151.646,191.507,150.589,198.086,155.754z"/>
				<path style="fill:#263238;" d="M190.453,162.131L43.7,246.859l261.075,205.017l-2.804,22.822
					c-3.373-0.161-6.64-1.188-9.001-3.043L33.016,267.457c-4.723-3.71-5.18-9.571-4.581-14.446
					c0.599-4.874,2.716-12.532,8.291-15.75l142.714-82.396c3.482-2.01,7.682-3.403,12.191-2.334c0,0-0.087,0.706-0.087,0.706
					L190.453,162.131z"/>
			</g>
			<path style="fill:#455A64;" d="M455.485,361.123L195.974,157.272c-3.744-2.941-10.411-3.253-14.827-0.707L41.834,237.003
				c-5.99,3.452-6.745,9.55-1.675,13.532l257.892,202.58c3.299,2.591,9.183,2.872,13.082,0.615l143.126-82.63
				C458.675,368.553,459.229,364.064,455.485,361.123z"/>
			<g>
				<g>
					<path style="fill:#455A64;" d="M111.501,311.682c1.861,1.461,3.114,4.722,2.8,7.282c-0.152,1.236-0.643,2.075-1.318,2.448
						c-0.477,0.264-2.291,1.348-2.787,1.624c-0.721,0.4-1.65,0.272-2.607-0.479l-20.664-16.231c-1.861-1.462-3.114-4.722-2.8-7.283
						c0.145-1.18,0.599-1.997,1.228-2.395c0.495-0.312,2.378-1.398,2.872-1.674c0.721-0.404,1.653-0.277,2.612,0.477
						L111.501,311.682z"/>
					<path style="fill:#37474F;" d="M108.727,313.285l-20.664-16.231c-1.861-1.462-3.624-0.571-3.939,1.99
						c-0.315,2.561,0.939,5.821,2.799,7.283l20.664,16.231c1.861,1.462,3.624,0.571,3.939-1.99
						C111.842,318.007,110.588,314.747,108.727,313.285z"/>
				</g>
				<g>
					<path style="fill:#455A64;" d="M75.335,283.276c1.861,1.461,3.114,4.722,2.8,7.282c-0.152,1.236-0.643,2.075-1.319,2.448
						c-0.477,0.264-2.29,1.348-2.787,1.624c-0.721,0.4-1.65,0.272-2.607-0.479L50.758,277.92c-1.861-1.462-3.114-4.722-2.8-7.283
						c0.145-1.18,0.599-1.997,1.228-2.394c0.495-0.312,2.378-1.398,2.872-1.674c0.721-0.404,1.653-0.277,2.612,0.477L75.335,283.276
						z"/>
					<path style="fill:#37474F;" d="M72.561,284.878l-20.664-16.231c-1.861-1.462-3.624-0.571-3.939,1.99
						c-0.315,2.561,0.938,5.821,2.799,7.283l20.664,16.231c1.861,1.462,3.624,0.571,3.939-1.99
						C75.675,289.6,74.422,286.34,72.561,284.878z"/>
				</g>
			</g>
			<g>
				<path d="M200.693,168.461L443.026,358.82c3.579,2.811,3.061,7.09-1.158,9.516l-129.49,74.763
					c-4.209,2.448-10.538,2.147-14.126-0.671L54.186,250.708c-2.901-2.279-3.129-5.518-0.819-7.96
					c0.187-0.188,0.357-0.373,0.552-0.555c0.424-0.352,0.908-0.69,1.434-0.994l36.422-21.03c0,0,1.06-0.617,2.376-1.369
					c1.307-0.759,3.269-0.668,4.384,0.208c1.108,0.87,3.152,0.929,4.549,0.114l42.449-24.505c1.389-0.805,1.639-2.171,0.533-3.041
					c-1.039-0.816-0.969-2.036,0.112-2.813c0.074-0.054,0.156-0.101,0.238-0.148l35.633-20.566l0.756-0.442
					C188.139,164.53,196.179,164.916,200.693,168.461z"/>
				<path style="fill:#EBEBEB;" d="M97.814,224.87c-1.116-0.876-3.077-0.967-4.384-0.208c-1.316,0.752-2.376,1.37-2.376,1.37
					l-36.422,21.03c-0.526,0.304-1.009,0.642-1.434,0.994c-0.195,0.182-0.365,0.367-0.551,0.555
					c-0.06,0.063-0.099,0.133-0.156,0.198c0.394,0.677,0.956,1.32,1.695,1.901l244.066,191.72c3.588,2.818,9.917,3.119,14.126,0.671
					l129.49-74.763c0.877-0.504,1.585-1.092,2.138-1.727c-0.394-0.686-0.952-1.34-1.701-1.928L199.973,174.323
					c-4.514-3.546-12.554-3.931-17.89-0.853l-0.756,0.442l-34.696,20.025c0,0-0.54,4.444-0.606,4.97
					c-0.072,0.576-0.487,1.151-1.214,1.572l-42.449,24.505C100.965,225.799,98.921,225.739,97.814,224.87z"/>
				<g>
					<g id="XMLID_00000089545630870181537510000003304132294316453767_">
						<path id="XMLID_00000144329850559089176060000008470107802617441924_" style="fill:#455A64;" d="M88.736,244.829
							c-0.052-0.006-0.107-0.033-0.162-0.084l-0.517-0.475l-1.614,0.933c-0.089,0.051-0.169,0.043-0.243-0.025l-0.185-0.171
							c-0.042-0.038-0.07-0.072-0.083-0.098c-0.012-0.027-0.021-0.063-0.027-0.109l-0.135-2.694
							c-0.002-0.049,0.002-0.085,0.014-0.11c0.011-0.025,0.042-0.052,0.093-0.082l0.225-0.129c0.067-0.04,0.129-0.056,0.188-0.048
							c0.057,0.007,0.115,0.038,0.173,0.09l1.807,1.661l0.356-0.206c0.069-0.039,0.128-0.055,0.18-0.047
							c0.054,0.009,0.109,0.039,0.166,0.091l0.123,0.113c0.055,0.05,0.08,0.094,0.076,0.132c-0.002,0.038-0.037,0.077-0.106,0.116
							l-0.356,0.206l0.517,0.475c0.055,0.05,0.08,0.095,0.075,0.133c-0.006,0.039-0.043,0.079-0.113,0.12l-0.272,0.156
							C88.849,244.818,88.79,244.835,88.736,244.829z M87.724,243.803l-1.288-1.184l0.117,1.861L87.724,243.803z"/>
						<path id="XMLID_00000099649859637888455230000009807619264835645585_" style="fill:#455A64;" d="M90.341,243.434
							c-0.595-0.073-1.151-0.348-1.668-0.823c-0.515-0.473-0.753-0.93-0.715-1.37c0.038-0.441,0.344-0.827,0.918-1.158
							c0.23-0.134,0.467-0.239,0.711-0.315c0.242-0.077,0.469-0.118,0.68-0.122c0.048-0.001,0.083,0.008,0.105,0.028
							c0.015,0.013,0.027,0.034,0.034,0.061l0.079,0.294c0.006,0.037,0.001,0.062-0.02,0.074c-0.011,0.006-0.041,0.011-0.089,0.017
							c-0.346,0.028-0.679,0.134-0.998,0.318c-0.387,0.224-0.595,0.489-0.621,0.796c-0.024,0.307,0.161,0.642,0.557,1.007
							c0.399,0.368,0.804,0.579,1.211,0.632c0.407,0.055,0.797-0.026,1.171-0.242c0.136-0.078,0.258-0.163,0.368-0.256
							c0.109-0.093,0.187-0.179,0.233-0.26l-0.84-0.772l-0.673,0.388c-0.068,0.04-0.128,0.055-0.181,0.047
							c-0.054-0.008-0.108-0.038-0.166-0.091l-0.118-0.108c-0.057-0.053-0.084-0.098-0.078-0.134
							c0.004-0.037,0.04-0.074,0.108-0.114l1.075-0.62c0.075-0.043,0.145-0.059,0.209-0.048c0.064,0.01,0.129,0.046,0.196,0.108
							l1.198,1.102c0.045,0.041,0.074,0.076,0.086,0.103c0.014,0.026,0.011,0.058-0.004,0.094c-0.137,0.342-0.474,0.667-1.011,0.977
							C91.52,243.378,90.935,243.508,90.341,243.434z"/>
					</g>
					<g id="XMLID_00000106110799517316609000000015428883268583563430_">
						<g id="XMLID_00000005230899449171784910000010888297182548925612_">
							<path id="XMLID_282_" style="fill:#455A64;" d="M103.758,235.402c0.399,0.367,0.303,0.907-0.214,1.206
								c-0.517,0.299-1.261,0.244-1.66-0.124c-0.399-0.367-0.303-0.907,0.214-1.206C102.616,234.98,103.359,235.035,103.758,235.402
								z"/>
						</g>
						<g id="XMLID_00000036967167100679186880000012889689542212253880_">
							<g id="XMLID_00000140722688049440867980000001969198738168053941_">
								<path id="XMLID_00000098940313800283665940000014360968961069398442_" style="fill:#455A64;" d="M100.915,234.191
									c-0.944,0.545-1.356,1.394-1.172,2.186c0.037,0.161,0.232,0.275,0.458,0.272l0.003,0c0.285-0.004,0.508-0.192,0.459-0.394
									c-0.135-0.559,0.156-1.158,0.82-1.542c0.665-0.384,1.533-0.453,2.247-0.229c0.26,0.082,0.564-0.034,0.634-0.236l0.001-0.002
									c0.055-0.159-0.054-0.323-0.259-0.386C103.088,233.548,101.859,233.646,100.915,234.191z"/>
							</g>
						</g>
						<g id="XMLID_00000117647599214279521290000017163171145701177789_">
							<g id="XMLID_00000103976778041524487880000012889205874980555183_">
								<path id="XMLID_00000044158361803627112380000010641639640452523189_" style="fill:#455A64;" d="M99.757,233.127
									c-1.403,0.81-2.073,2.044-1.928,3.236c0.021,0.175,0.216,0.31,0.46,0.307l0.004,0c0.276-0.003,0.489-0.179,0.464-0.378
									c-0.125-0.972,0.42-1.981,1.567-2.643c1.147-0.662,2.622-0.82,3.894-0.509c0.259,0.063,0.543-0.047,0.61-0.242l0,0
									c0.059-0.172-0.075-0.341-0.304-0.396C102.971,232.123,101.164,232.315,99.757,233.127z"/>
							</g>
						</g>
					</g>
					<g>
						<polygon style="fill:#455A64;" points="71.285,255.48 70.288,254.563 72.011,253.569 73.008,254.485 						"/>
						<polygon style="fill:#455A64;" points="73.87,253.988 71.877,252.155 73.599,251.16 75.593,252.993 						"/>
						<polygon style="fill:#455A64;" points="76.455,252.495 73.464,249.746 75.187,248.752 78.178,251.501 						"/>
						<polygon style="fill:#455A64;" points="79.039,251.003 75.051,247.337 76.775,246.342 80.762,250.008 						"/>
					</g>
					<g id="XMLID_00000176040126186343143030000016368423687334307482_">
						<path id="XMLID_00000078744812566944909510000008204666763462386869_" style="fill:#455A64;" d="M183.963,185.63
							c-0.369-0.066-0.697-0.029-0.928,0.104l-6.442,3.708c-0.418,0.241-0.409,0.738,0.02,1.132l1.812,1.666
							c0.239,0.219,0.573,0.377,0.939,0.444c0.157,0.029,0.309,0.038,0.453,0.028c0.185-0.013,0.345-0.058,0.475-0.133l6.442-3.708
							c0.417-0.241,0.409-0.738-0.02-1.132l-1.812-1.666C184.663,185.855,184.33,185.697,183.963,185.63z M179.358,192.415
							c-0.133-0.024-0.279-0.101-0.398-0.211l-1.812-1.666c-0.316-0.29-0.323-0.685-0.016-0.862l6.442-3.708
							c0.075-0.043,0.162-0.07,0.25-0.076c0.048-0.003,0.096-0.001,0.144,0.008c0.134,0.024,0.279,0.101,0.398,0.211l1.812,1.666
							c0.317,0.291,0.324,0.686,0.017,0.863l-6.442,3.708C179.635,192.416,179.495,192.44,179.358,192.415z"/>
						<g id="XMLID_00000012465412566432427730000004921700355747278220_">
							<path style="fill:#455A64;" d="M178.668,189.26l2.144,1.971l-1.013,0.582c-0.087,0.05-0.26,0.056-0.31,0.01l-1.594-1.465
								c-0.229-0.21-0.234-0.51-0.016-0.641L178.668,189.26z"/>
							<polygon style="fill:#455A64;" points="179.142,188.994 180.348,188.294 182.492,190.265 181.28,190.96 							"/>
							<polygon style="fill:#455A64;" points="180.823,188.029 182.028,187.329 184.179,189.306 182.967,190 							"/>
							<path style="fill:#455A64;" d="M183.85,186.495l1.545,1.42c0.284,0.261,0.152,0.602-0.341,0.886l-0.407,0.235l-2.144-1.971
								l0.962-0.555C183.577,186.446,183.789,186.438,183.85,186.495z"/>
						</g>
						<g id="XMLID_00000002349125989653632450000010889353128513585586_">
							<path id="XMLID_00000029746352791889975320000009501272631623692972_" style="fill:#455A64;" d="M185.154,185.947
								c0.177-0.104,0.622,0.089,0.994,0.431l0.337,0.31c0.372,0.342,0.535,0.71,0.363,0.823l-0.311,0.203l-1.704-1.578
								C184.833,186.135,184.977,186.051,185.154,185.947z"/>
						</g>
					</g>
					<polygon style="fill:#455A64;" points="167.282,196.622 172.567,192.116 174.157,196.467 171.284,195.19 					"/>
				</g>
				<g>
					<path style="fill:#263238;" d="M102.76,210.085l19.458-11.234c1.161-0.67,2.85-0.626,3.773,0.098
						c0.923,0.725,0.73,1.856-0.431,2.526l-19.458,11.234c-1.161,0.67-2.85,0.626-3.773-0.099
						C101.406,211.887,101.599,210.756,102.76,210.085z"/>
					<g>
						<path style="fill:#263238;" d="M131.525,192.555c1.308-0.755,3.266-0.661,4.374,0.209c1.108,0.87,0.946,2.188-0.362,2.943
							c-1.307,0.755-3.266,0.662-4.374-0.209C130.055,194.627,130.217,193.31,131.525,192.555z"/>
					</g>
				</g>
				<path style="fill:#455A64;" d="M159.59,229.069l-0.022,0.013l-2.298-1.805c-0.818-0.643-2.164-0.773-3.001-0.29l-2.818,1.627
					c-0.837,0.483-0.852,1.398-0.033,2.042l2.298,1.805l-0.022,0.012c-0.639,0.369-0.651,1.067-0.025,1.559l4.635,3.641
					c0.626,0.492,1.652,0.591,2.291,0.221l5.896-3.404c0.639-0.369,0.651-1.067,0.025-1.559l-4.635-3.641
					C161.255,228.799,160.23,228.7,159.59,229.069z M152.072,230.278c-0.466-0.366-0.457-0.887,0.019-1.161l2.818-1.627
					c0.476-0.275,1.242-0.201,1.707,0.165l2.298,1.805l-4.544,2.624L152.072,230.278z"/>
				<g>
					<path style="fill:#455A64;" d="M176.471,287.947c0.499,0.392,0.452,0.757-0.135,1.096l-0.762,0.44
						c-0.587,0.339-1.128,0.315-1.629-0.078l-20.227-15.889l-2.492,7.819c-0.184,0.51-0.644,0.712-1.375,0.61l-0.918-0.118
						c-0.339-0.05-0.591-0.158-0.758-0.325c-0.166-0.167-0.212-0.366-0.132-0.594l2.967-9.301c0.074-0.196,0.181-0.349,0.317-0.459
						c0.138-0.112,0.301-0.22,0.487-0.328l0.762-0.44c0.587-0.339,1.13-0.313,1.629,0.078L176.471,287.947z"/>
					<path style="fill:#455A64;" d="M165.906,271.844c-0.743-0.619-1.358-1.359-1.849-2.216c-0.489-0.857-0.727-1.763-0.708-2.714
						c0.017-0.951,0.352-1.914,1.008-2.893c0.652-0.979,1.742-1.907,3.264-2.786c1.524-0.88,3.011-1.475,4.461-1.792
						c1.456-0.313,2.839-0.417,4.154-0.314c1.314,0.105,2.543,0.396,3.688,0.878c1.144,0.479,2.156,1.066,3.039,1.759
						c1.403,1.102,2.286,2.287,2.651,3.558c0.366,1.269,0.391,2.782,0.076,4.535l-1.295,11.757l13.421-7.747
						c0.613-0.355,1.182-0.328,1.701,0.081l0.509,0.4c0.499,0.39,0.44,0.763-0.174,1.118l-16.426,9.484
						c-0.588,0.338-1.13,0.313-1.628-0.078l-0.509-0.4c-0.226-0.178-0.374-0.394-0.442-0.649c-0.069-0.251-0.062-0.602,0.018-1.05
						l1.584-12.895c0.158-0.896,0.242-1.667,0.249-2.318c0.005-0.65-0.071-1.231-0.234-1.739c-0.16-0.508-0.407-0.967-0.742-1.374
						c-0.335-0.409-0.763-0.816-1.282-1.226c-1.517-1.19-3.213-1.832-5.085-1.921c-1.875-0.087-3.774,0.421-5.698,1.532
						c-1.842,1.063-2.839,2.247-2.986,3.551c-0.148,1.303,0.404,2.595,1.663,3.873c0.217,0.245,0.291,0.472,0.215,0.688
						c-0.076,0.211-0.196,0.364-0.355,0.457l-0.801,0.463C166.831,272.187,166.335,272.179,165.906,271.844z"/>
					<path style="fill:#455A64;" d="M196.96,259.929c0.226,0.176,0.321,0.371,0.28,0.577c-0.037,0.206-0.189,0.387-0.456,0.542
						l-1.923,1.111c-0.588,0.338-1.13,0.313-1.628-0.078l-1.629-1.281c-0.227-0.179-0.332-0.371-0.318-0.578
						c0.012-0.21,0.152-0.391,0.418-0.543l1.923-1.111c0.269-0.155,0.563-0.224,0.885-0.208c0.32,0.015,0.592,0.111,0.82,0.29
						L196.96,259.929z M208.842,269.259c0.227,0.178,0.319,0.371,0.282,0.579c-0.039,0.206-0.189,0.387-0.458,0.539l-1.923,1.111
						c-0.588,0.338-1.13,0.315-1.629-0.078l-1.629-1.278c-0.226-0.179-0.334-0.371-0.32-0.581c0.012-0.207,0.151-0.388,0.42-0.543
						l1.923-1.111c0.266-0.152,0.56-0.221,0.883-0.206c0.321,0.015,0.596,0.111,0.822,0.29L208.842,269.259z"/>
					<path style="fill:#455A64;" d="M207.701,238.556c0.615-0.355,1.182-0.328,1.703,0.081l0.507,0.4
						c0.137,0.105,0.221,0.218,0.256,0.336c0.033,0.118,0.059,0.237,0.07,0.354l-0.07,11.465l0.801-0.462
						c1.361-0.787,2.747-1.4,4.151-1.843c1.406-0.44,2.79-0.676,4.146-0.703c1.356-0.027,2.679,0.166,3.969,0.578
						c1.289,0.41,2.497,1.063,3.628,1.95c1.134,0.888,1.893,1.814,2.283,2.776c0.392,0.962,0.458,1.924,0.203,2.889
						c-0.255,0.965-0.812,1.911-1.671,2.838c-0.858,0.927-1.967,1.784-3.328,2.571c-1.497,0.863-2.997,1.507-4.501,1.927
						c-1.502,0.42-2.933,0.654-4.288,0.696c-1.36,0.045-2.605-0.078-3.734-0.366c-1.133-0.287-2.084-0.716-2.857-1.288
						c-0.203-0.16-0.282-0.331-0.235-0.512c0.047-0.181,0.19-0.342,0.431-0.48l0.56-0.324c0.215-0.124,0.468-0.206,0.758-0.252
						c0.291-0.044,0.661,0.036,1.106,0.241c0.961,0.464,1.918,0.735,2.875,0.812c0.961,0.082,1.902,0.037,2.828-0.126
						c0.926-0.164,1.813-0.423,2.662-0.774c0.849-0.353,1.636-0.736,2.359-1.153c1.041-0.601,1.887-1.229,2.537-1.882
						c0.652-0.653,1.08-1.326,1.29-2.017c0.21-0.69,0.172-1.384-0.116-2.085c-0.286-0.698-0.848-1.375-1.686-2.032
						c-1.674-1.316-3.467-1.914-5.381-1.797c-1.912,0.119-3.898,0.768-5.953,1.956l-3.526,2.036
						c-0.588,0.338-1.13,0.313-1.627-0.078l-0.509-0.4c-0.182-0.143-0.301-0.28-0.359-0.417c-0.056-0.137-0.089-0.279-0.095-0.431
						l0.006-11.242l-12.1,6.985c-0.587,0.338-1.13,0.312-1.629-0.078l-0.509-0.4c-0.52-0.409-0.485-0.783,0.101-1.122
						L207.701,238.556z"/>
					<path style="fill:#455A64;" d="M246.78,247.355c0.496,0.393,0.452,0.757-0.135,1.096l-0.762,0.44
						c-0.588,0.338-1.13,0.313-1.629-0.078l-20.229-15.89l-2.489,7.817c-0.183,0.51-0.644,0.713-1.376,0.611l-0.918-0.117
						c-0.339-0.05-0.592-0.158-0.76-0.327c-0.164-0.164-0.211-0.363-0.131-0.592l2.967-9.301c0.074-0.195,0.179-0.349,0.317-0.459
						c0.138-0.112,0.301-0.221,0.487-0.328l0.762-0.44c0.586-0.339,1.13-0.313,1.627,0.078L246.78,247.355z"/>
				</g>
				<path style="fill:#FFFFFF;" d="M180.059,319.374l102.725-59.31c2.766-1.597,6.907-1.399,9.25,0.441l23.356,18.346
					c2.343,1.84,2.001,4.627-0.765,6.224l-102.727,59.309c-2.766,1.597-6.907,1.399-9.251-0.441l-23.355-18.345
					C176.951,323.758,177.293,320.971,180.059,319.374z"/>
				<path style="fill:#FFFFFF;" d="M222.143,352.437l102.725-59.31c2.766-1.597,6.907-1.399,9.251,0.441l23.356,18.345
					c2.343,1.841,2.001,4.627-0.765,6.224l-102.727,59.309c-2.766,1.597-6.907,1.399-9.251-0.441l-23.355-18.344
					C219.035,356.82,219.377,354.034,222.143,352.437z"/>
				<path style="fill:#FFFFFF;" d="M264.227,385.5l102.725-59.31c2.766-1.597,6.907-1.399,9.251,0.441l23.356,18.345
					c2.343,1.841,2.001,4.627-0.765,6.224L296.068,410.51c-2.766,1.597-6.907,1.399-9.251-0.441l-23.355-18.344
					C261.119,389.883,261.461,387.097,264.227,385.5z"/>
				<path style="fill:#E0E0E0;" d="M305.993,388.133c-0.015-0.001-0.032-0.001-0.05,0c-2.496,0.097-4.935-0.466-6.551-1.735
					l-3-2.357c-3.423-2.689-9.473-2.977-13.513-0.645l0,0c-4.04,2.332-4.54,6.403-1.117,9.091l2.681,2.106
					c1.686,1.325,2.342,3.097,1.871,4.825l0.551,1.262c0.862,0.677,2.386,0.75,3.404,0.162l17.086-9.865
					c1.018-0.588,1.144-1.613,0.282-2.29C307.206,388.35,306.609,388.163,305.993,388.133z M302.968,399.175
					c1.939-1.12,2.179-3.074,0.536-4.365l-7.024,4.055C298.123,400.156,301.028,400.295,302.968,399.175z"/>
				<path style="fill:#E0E0E0;" d="M263.977,354.292c-0.015-0.001-0.032-0.001-0.05,0c-2.496,0.097-4.935-0.466-6.551-1.735
					l-3-2.356c-3.423-2.689-9.473-2.977-13.513-0.645l0,0c-4.04,2.332-4.54,6.403-1.117,9.091l2.682,2.106
					c1.686,1.324,2.342,3.097,1.871,4.825l0.551,1.262c0.862,0.677,2.386,0.75,3.404,0.162l17.086-9.865
					c1.018-0.588,1.144-1.613,0.282-2.29C265.19,354.509,264.593,354.322,263.977,354.292z M260.952,365.334
					c1.939-1.12,2.179-3.074,0.536-4.365l-7.024,4.055C256.107,366.315,259.012,366.454,260.952,365.334z"/>
			</g>
		</g>
		<g id="Shine_00000129188335560581890700000008821331715545529270_" style="opacity:0.3;">
			<polygon style="fill:#FFFFFF;" points="300.297,246.695 269.349,222.387 219.866,380.843 250.813,405.151 			"/>
			<path style="fill:#FFFFFF;" d="M393.735,326.527l-52.452-41.202l-47.873,153.3l4.842,3.803c3.588,2.818,9.917,3.119,14.126,0.671
				l54.842-31.664L393.735,326.527z"/>
			<path style="fill:#FFFFFF;" d="M191.708,358.725l49.483-158.455l-40.497-31.809c-4.514-3.546-12.554-3.931-17.89-0.853
				l-0.756,0.442l-21.467,12.39l-38.578,123.535L191.708,358.725z"/>
		</g>
	</g>
</g>
<g id="Character">
	<ellipse id="Shadow" style="opacity:0.2;" cx="272.82" cy="319.323" rx="67.371" ry="35.314"/>
	<g id="Character_00000047045004644690080230000015189687998652785820_">
		<g>
			<path style="fill:#37474F;" d="M302.243,338.976c0,0,20.949-7.549,27.779-18.621c-0.629-12.268-1.815-34.297-1.994-34.15
				l-39.483,4.088l8.343,34.614L302.243,338.976z"/>
			<path style="fill:#455A64;" d="M317.64,317.33c3.702-6.413,6.919-21.799,6.93-27.033H217.757c0,0-1.987,23.079-1.822,32.36
				c0,0.039,0.01,0.069,0.01,0.108c0.001,0.006,0.005,0.012,0.006,0.018c2.229,5.505,7.477,8.889,19.441,14.079
				c22.14,9.593,52.182,8.129,66.854,2.116v-4.891C302.246,334.086,313.938,323.743,317.64,317.33z"/>
		</g>
		<g id="Top_26_">
			<g id="Top_17_">
				<g>
					<g>
						<path style="fill:#FFA8A7;" d="M345.069,185.922c17.396,15.18,20.595,18.28,20.595,18.28
							c4.79-19.927,8.748-33.865,9.352-42.325c0.603-8.46,11.539-26.989,11.539-26.989c8.717,2.255,15.56,15.947,11.146,29.953
							c-3.21,10.185,2.859,34.962-3.383,67.769c-3.265,17.157-12.769,21.221-31.209,10.811
							c-12.922-7.295-36.251-24.177-36.251-24.177l-17.706-58.9C323.975,163.035,328.123,171.134,345.069,185.922z"/>
						<path style="fill:#455A64;" d="M312.044,160.125c8.415,1.658,14.202,5.953,23.816,15.553
							c9.614,9.599,29.938,27.965,29.938,27.965s-5.043,12.505-0.899,28.411c3.604,13.836,9.168,16.166,9.168,16.166
							s-4.383,1.272-16.038-6.215c-11.655-7.487-37.459-25.987-37.459-25.987L312.044,160.125z"/>
						<path style="fill:#37474F;" d="M366.765,199.662c0,0-2.033,31.768,7.733,40.615c9.766,8.846,15.963,3.023,15.963,3.023
							s-0.511,9.026-6.428,8.731c-5.917-0.295-6.843,0.165-10.319,0.059c-3.476-0.106-8.942-0.593-11.411-7.54
							c-7.28-14.073-4.604-32.537,0.461-43.662C364.489,201.733,364.476,199.304,366.765,199.662z"/>
					</g>
					<g id="XMLID_00000101790540802116219760000017652426768537559996_">
						<g id="XMLID_00000016054196190325476340000007873828407568309666_">
							<g id="XMLID_00000057844226531966397240000005333501979593481149_">
								<g id="XMLID_10772_">
									<g id="XMLID_10796_">
										<path style="fill:#F28F8F;" d="M411.612,135.732c-0.228,5.704-2.456,9.588-3.613,12.515
											c-4.497,11.378-7.029,10.037-11.494,18.787l-9.435-24.395c-4.112-7.208-0.871-10.41,5.481-11.918L411.612,135.732z"/>
										<g id="Megaphone_00000167362689299967386620000006478788609557456280_">
											<g>
												<path style="fill:#455A64;" d="M356.095,125.853c6.34,4.241,14.918,2.538,19.158-3.802
													c4.24-6.341,2.538-14.918-3.803-19.159c-6.34-4.24-14.918-2.538-19.158,3.803
													C348.052,113.035,349.754,121.613,356.095,125.853z"/>
												<path style="fill:#37474F;" d="M361.382,121.086c2.601-1.281,9.348-4.605,16.143-7.953
													c0.276,3.037-0.445,6.185-2.272,8.917c-4.24,6.34-12.818,8.043-19.158,3.802c-2.378-1.59-4.104-3.79-5.108-6.254
													C353.229,122.582,356.192,123.642,361.382,121.086z"/>
											</g>
											<g id="XMLID_913_">
												<path id="XMLID_6588_" style="fill:#37474F;" d="M373.206,117.416l0.726-11.09c7.59,8.631,20.526,19.271,31.109,25.434
													l-0.292,4.435C397.384,133.981,384.63,126.059,373.206,117.416z"/>
												<path id="XMLID_00000054261602768451448540000018259199660548507836_" style="fill:#455A64;" d="M366.625,127.089
													l6.549-0.5l12.624,8.32c5.653,3.725,12.846,4.214,18.95,1.287l0,0c-8.558-2.954-21.075-11.008-31.542-18.779
													L366.625,127.089z"/>
												<g>
													<path style="fill:#BA68C8;" d="M388.06,126.022c-0.007,0.111-0.014,0.221-0.021,0.326
														c-0.035,0.522-0.443,1.133-0.913,1.365l-2.283,1.124c-0.47,0.232-0.498,0.655-0.062,0.946l0.268,0.179
														c0.435,0.291,1.169,0.339,1.638,0.109l2.322-1.141c0.469-0.231,0.872-0.842,0.898-1.365l0.016-0.307
														c0.027-0.523-0.305-1.183-0.74-1.473l-0.272-0.182C388.475,125.312,388.095,125.5,388.06,126.022z"/>
													<path style="fill:#BA68C8;" d="M392.368,128.488c-0.007,0.111-0.014,0.221-0.022,0.326
														c-0.034,0.522-0.443,1.133-0.912,1.364l-2.283,1.125c-0.469,0.232-0.497,0.655-0.062,0.946l0.268,0.179
														c0.435,0.291,1.168,0.34,1.638,0.109l2.321-1.141c0.47-0.231,0.872-0.842,0.898-1.364l0.016-0.308
														c0.026-0.522-0.305-1.182-0.74-1.473l-0.272-0.182C392.783,127.778,392.403,127.966,392.368,128.488z"/>
													<path style="fill:#BA68C8;" d="M396.677,130.954c-0.007,0.111-0.014,0.221-0.021,0.327
														c-0.035,0.522-0.443,1.133-0.913,1.364l-2.283,1.125c-0.469,0.231-0.497,0.654-0.063,0.945l0.268,0.18
														c0.435,0.291,1.169,0.34,1.638,0.109l2.321-1.141c0.47-0.231,0.872-0.841,0.898-1.364l0.016-0.308
														c0.026-0.523-0.305-1.182-0.74-1.473l-0.272-0.182C397.092,130.245,396.711,130.432,396.677,130.954z"/>
												</g>
											</g>
											<g id="XMLID_869_">
												<g>
													<path id="XMLID_912_" style="fill:#BA68C8;" d="M366.871,94.792l0.002,0.007c-1.91,0.946-3.257,3.037-3.67,6.084
														c-0.047,0.317-0.08,0.648-0.104,0.991c-0.026,0.405-0.038,0.807-0.031,1.222c0.006,0.682,0.051,1.373,0.139,2.076
														c0.152,1.282,0.432,2.586,0.823,3.884c1.054,3.486,2.902,6.911,5.223,9.62c1.173,1.366,2.463,2.548,3.837,3.467
														c2.918,1.952,5.663,2.34,7.759,1.387l-7.199,3.553l-0.007-0.016c-2.635,1.162-5.857,1.019-8.728-0.901
														c-1.312-0.877-2.552-1.997-3.679-3.287c-2.395-2.735-4.301-6.234-5.378-9.798c-0.391-1.299-0.674-2.606-0.822-3.885
														c-0.088-0.703-0.137-1.397-0.139-2.076c-0.007-0.415,0.004-0.824,0.031-1.222c0.021-0.339,0.061-0.671,0.113-0.996
														c0.485-2.959,2.214-5.228,4.491-6.476l-0.002-0.007l0.199-0.101c0.084-0.04,0.171-0.085,0.259-0.123L366.871,94.792z"
														/>
													<path id="XMLID_892_" style="opacity:0.1;" d="M373.65,127.084l-0.007-0.016c-2.635,1.162-5.857,1.019-8.728-0.901
														c-1.312-0.877-2.552-1.997-3.679-3.287l8.016-4.204c1.173,1.366,2.463,2.548,3.837,3.467
														c2.918,1.952,5.663,2.34,7.759,1.387L373.65,127.084z"/>
												</g>
												<g>
													<path id="XMLID_891_" style="fill:#BA68C8;" d="M374.804,96.107c5.99,4.007,10.463,13.079,9.987,20.268
														c-0.235,3.616-1.682,6.069-3.824,7.098c-0.037,0.021-0.077,0.039-0.118,0.058c-2.096,0.952-4.841,0.564-7.759-1.387
														c-5.99-4.006-10.462-13.078-9.991-20.27c0.238-3.586,1.662-6.031,3.774-7.075
														C368.99,93.746,371.803,94.1,374.804,96.107z"/>
													<path id="XMLID_890_" style="opacity:0.2;" d="M374.804,96.107c5.99,4.007,10.463,13.079,9.987,20.268
														c-0.235,3.616-1.682,6.069-3.824,7.098c-0.037,0.021-0.077,0.039-0.118,0.058c-2.096,0.952-4.841,0.564-7.759-1.387
														c-5.99-4.006-10.462-13.078-9.991-20.27c0.238-3.586,1.662-6.031,3.774-7.075
														C368.99,93.746,371.803,94.1,374.804,96.107z"/>
												</g>
												<g>
													<path id="XMLID_887_" style="fill:#BA68C8;" d="M392.512,66.275c0,0-1.474,12.726,7.13,30.191
														c1.69,3.43,3.475,6.443,5.248,9.066c7.251,10.731,14.344,14.985,14.344,14.985c-8.804-1.8-18.313-3.079-27.713-0.888
														c-5.818,1.355-10.838,3.174-10.838,3.174l-0.004-0.008c-1.936,0.948-4.496,0.546-7.189-1.254
														c-1.773-1.187-3.407-2.832-4.807-4.752c-0.891-1.209-1.689-2.527-2.367-3.904c-1.75-3.553-2.719-7.492-2.491-10.964
														c0.214-3.232,1.454-5.507,3.386-6.464l-0.004-0.008c0,0,4.501-2.872,9.121-6.659
														C383.793,82.672,388.574,74.353,392.512,66.275z"/>
													<path id="XMLID_886_" style="opacity:0.6;fill:#FFFFFF;" d="M392.512,66.275c0,0-1.474,12.726,7.13,30.191
														c1.69,3.43,3.475,6.443,5.248,9.066c7.251,10.731,14.344,14.985,14.344,14.985c-8.804-1.8-18.313-3.079-27.713-0.888
														c-5.818,1.355-10.838,3.174-10.838,3.174l-0.004-0.008c-1.936,0.948-4.496,0.546-7.189-1.254
														c-1.773-1.187-3.407-2.832-4.807-4.752c-0.891-1.209-1.689-2.527-2.367-3.904c-1.75-3.553-2.719-7.492-2.491-10.964
														c0.214-3.232,1.454-5.507,3.386-6.464l-0.004-0.008c0,0,4.501-2.872,9.121-6.659
														C383.793,82.672,388.574,74.353,392.512,66.275z"/>
													<path id="XMLID_885_" style="opacity:0.1;" d="M404.89,105.533c7.251,10.731,14.344,14.985,14.344,14.985
														c-8.804-1.8-18.313-3.079-27.713-0.888c-5.818,1.355-10.838,3.174-10.838,3.174l-0.004-0.008
														c-1.936,0.948-4.496,0.546-7.189-1.254c-1.773-1.187-3.407-2.832-4.807-4.752
														C377.078,112.014,391.477,104.83,404.89,105.533z"/>
												</g>
												<g>
													<path id="XMLID_884_" style="fill:#BA68C8;" d="M417.967,57.467c6.246,4.178,11.798,10.672,15.97,18.096l0.004,0.003
														c5.341,9.511,8.42,20.531,7.786,30.138c-1.13,17.108-13.598,23.248-27.847,13.719c-3.261-2.181-6.33-4.991-9.115-8.233
														c-6.854-7.992-11.97-18.607-13.894-28.888c-0.274-1.448-0.481-2.887-0.621-4.314c-0.06-0.593-0.106-1.188-0.141-1.775
														l0.003-0.004c-0.05-0.837-0.078-1.665-0.077-2.485c0.001-0.854,0.025-1.699,0.082-2.534
														C391.247,54.082,403.713,47.936,417.967,57.467z"/>
													<path id="XMLID_881_" style="opacity:0.1;" d="M433.941,75.566c5.341,9.511,8.42,20.531,7.786,30.138
														c-1.13,17.108-13.598,23.248-27.847,13.719c-3.261-2.181-6.33-4.991-9.115-8.233l0.003-0.004
														c2.402,0.398,7.039-0.844,6.094-3.419c2.503,2.888,5.23,5.373,8.094,7.288c4.096,2.739,8.012,4.036,11.328,3.756
														c2.828-0.24,5.119-1.638,6.798-4.157c1.639-2.443,2.639-5.89,2.912-9.954c0.54-8.172-1.952-17.682-6.309-26.159
														C433.684,78.541,434.848,78.208,433.941,75.566z"/>
												</g>
												<g>
													<path id="XMLID_879_" style="fill:#BA68C8;" d="M417.74,59.528c6.294,4.209,11.921,11.17,15.944,19.013
														c4.357,8.477,6.849,17.987,6.309,26.159c-0.272,4.064-1.272,7.511-2.912,9.954c-1.679,2.519-3.97,3.917-6.798,4.157
														c-3.316,0.279-7.232-1.017-11.328-3.756c-2.863-1.915-5.59-4.4-8.094-7.288c-0.947-1.09-1.861-2.237-2.737-3.433
														c-1.527-2.081-2.951-4.316-4.221-6.636c-0.262-0.477-0.517-0.956-0.767-1.436c-0.418-0.798-0.822-1.61-1.199-2.426
														c-1.309-2.79-2.403-5.671-3.252-8.553c-0.009-0.029-0.017-0.068-0.03-0.1c-0.562-1.921-1.014-3.836-1.349-5.73
														c-0.24-1.363-0.415-2.712-0.529-4.042c-0.049-0.557-0.084-1.111-0.108-1.663c-0.026-0.661-0.036-1.318-0.033-1.972
														c0.007-0.633,0.033-1.26,0.071-1.879c0.266-4.08,1.278-7.519,2.91-9.967C403.242,54.512,410.021,54.365,417.74,59.528z
														"/>
													<path id="XMLID_877_" style="opacity:0.4;" d="M417.74,59.528c6.294,4.209,11.921,11.17,15.944,19.013
														c4.357,8.477,6.849,17.987,6.309,26.159c-0.272,4.064-1.272,7.511-2.912,9.954c-1.679,2.519-3.97,3.917-6.798,4.157
														c-3.316,0.279-7.232-1.017-11.328-3.756c-2.863-1.915-5.59-4.4-8.094-7.288c-0.947-1.09-1.861-2.237-2.737-3.433
														c-1.527-2.081-2.951-4.316-4.221-6.636c-0.262-0.477-0.517-0.956-0.767-1.436c-0.418-0.798-0.822-1.61-1.199-2.426
														c-1.309-2.79-2.403-5.671-3.252-8.553c-0.009-0.029-0.017-0.068-0.03-0.1c-0.562-1.921-1.014-3.836-1.349-5.73
														c-0.24-1.363-0.415-2.712-0.529-4.042c-0.049-0.557-0.084-1.111-0.108-1.663c-0.026-0.661-0.036-1.318-0.033-1.972
														c0.007-0.633,0.033-1.26,0.071-1.879c0.266-4.08,1.278-7.519,2.91-9.967C403.242,54.512,410.021,54.365,417.74,59.528z
														"/>
												</g>
											</g>
											<g>
												<g id="XMLID_00000113320510357155738450000001461870102893923263_">
													<path id="XMLID_00000143594074885671513060000010165201038812332990_" style="fill:#37474F;" d="M412.357,79.32
														l8.387,16.635c-3.834,2.066-8.548,4.551-11.731,9.552c-0.302-0.384-0.594-0.774-0.885-1.174
														c-1.527-2.081-2.951-4.316-4.22-6.636c-0.263-0.478-0.518-0.956-0.767-1.436c-0.418-0.798-0.822-1.61-1.199-2.426
														c-1.309-2.79-2.403-5.671-3.252-8.553c-0.009-0.029-0.017-0.068-0.03-0.1c-0.122-0.423-0.243-0.847-0.354-1.269
														C404.307,84.385,412.357,79.32,412.357,79.32z"/>
												</g>
												<g id="XMLID_00000112596797688944469570000006539306747739097764_">
													<path id="XMLID_00000040570552250803205030000015248804975712277423_" style="fill:#BA68C8;" d="M421.666,95.044
														c-1.112,1.663-3.119,1.757-5.368,0.252l-0.069-0.046c-3.536-2.365-6.185-7.742-5.905-11.986l0.005-0.083
														c0.075-1.132,0.362-2.1,0.831-2.802c1.112-1.662,3.119-1.757,5.368-0.252l0.069,0.046
														c3.536,2.365,6.185,7.742,5.905,11.986l-0.005,0.083C422.422,93.374,422.135,94.343,421.666,95.044L421.666,95.044z"/>
												</g>
											</g>
										</g>
										<path id="XMLID_10801_" style="fill:#FFA8A7;" d="M390.469,121.661c-0.001-0.001,2.829-0.838,3.826-1.054
											c2.386-0.515,4.154-1.382,5.938,0.373c0.609,0.6,0.964,1.728,1.653,2.209c0.782,0.545,2.348,0.321,3.286,0.522
											c1.091,0.235,2.122,0.73,2.786,1.66c0.447,0.626,0.576,1.777,1.176,2.153c0.757,0.473,2.046,0.385,2.898,0.756
											c1.919,0.835,2.457,3.387,3.167,5.136c0.767,1.888,2.05,4.509,1.234,6.532c-0.626,1.551-1.808,2.656-3.129,3.663
											c-1.52,1.158-3.182,2.343-4.837,3.308c-1.437,0.838-2.963,0.159-3.874-1.021c-1.197-1.552-3.477-0.974-4.919-2.327
											c-0.624-0.585-0.81-1.47-1.42-2.071c-0.737-0.726-1.37-1.173-1.652-2.217c-0.492-1.816,0.391-3.768,0.755-5.528
											c0.317-1.535-0.077-3.347-0.5-4.85c-0.325-1.155-0.86-2.945-1.877-3.736C394.982,125.168,390.483,121.672,390.469,121.661
											z"/>
									</g>
								</g>
								<path id="XMLID_00000156553420197228042990000003747746047913439933_" style="fill:#FFA8A7;" d="M375.016,161.876
									c0.241-10.648-0.403-15.23-0.385-20.259c0.021-5.728,3.994-8.974,8.725-12.805c3.568-2.888,4.904-4.226,7.075-6.575
									c1.767-1.966,3.335,4.106,2.98,6.385c-0.428,2.742-2.981,5.87-4.67,8.311c-3.848,5.561,11.317,13.318,7.764,30.1
									C392.97,172.488,375.016,161.876,375.016,161.876z"/>
							</g>
						</g>
					</g>
				</g>
				<g id="Chest_6_">
					<g>
						<path id="XMLID_5023_" style="fill:#FAFAFA;" d="M326.348,204.517c-0.93-33.247-15.659-42.366-21.463-44.77l-23.619-4.712
							c-7.211,0.797-37.919,10.007-46.382,12.1c-5.449,1.347-5.189,11.941-7.941,29.404c-2.236,14.184-3.479,26.129-4.825,45.9
							c-1.128,16.567-2.456,35.439,0.475,58.884c37.359,11.401,73.21,16.853,100.955-4.434c-0.648-4.671,2.178-43.568,2.414-55.041
							C326.2,230.375,326.6,213.517,326.348,204.517z"/>
						<g>
							<g>
								<path style="fill:#BA68C8;" d="M228.508,167.891l29.906-9.493c0,0,2.527,7.782,8.104,22.778
									c5.576,14.996,5.258,24.241,3.593,49.363c-1.665,25.121-2.207,79.14-4.601,101.624c-11.184,0.52-41.835-8.407-50.986-20.795
									c0,0,3.165-45.534,4.596-71.238C220.55,214.426,215.3,173.976,228.508,167.891z"/>
								<path style="opacity:0.15;" d="M228.508,167.891l29.906-9.493c0,0,2.527,7.782,8.104,22.778
									c5.576,14.996,5.258,24.241,3.593,49.363c-1.665,25.121-2.207,79.14-4.601,101.624c-11.184,0.52-41.835-8.407-50.986-20.795
									c0,0,3.165-45.534,4.596-71.238C220.55,214.426,215.3,173.976,228.508,167.891z"/>
							</g>
						</g>
						<g>
							<g>
								<path style="fill:#BA68C8;" d="M291.755,159.332c9.778,4.883,15.721,16.785,16.683,32.586
									c0.962,15.801,4.464,47.409,5.023,59.325c2.43,51.765,5.069,65.677,5.069,65.677c4.863-2.495,10.898-5.462,11.762-12.583
									c-1.093-11.081-1.776-53.429-1.863-63.322c-0.087-9.892-0.644-32.755-1.019-44.847
									c-0.375-12.093-3.276-27.331-13.393-35.528c-10.439-3.36-21.9-4.001-21.9-4.001L291.755,159.332z"/>
								<path style="opacity:0.15;" d="M291.755,159.332c9.778,4.883,15.721,16.785,16.683,32.586
									c0.962,15.801,4.464,47.409,5.023,59.325c2.43,51.765,5.069,65.677,5.069,65.677c4.863-2.495,10.898-5.462,11.762-12.583
									c-1.093-11.081-1.776-53.429-1.863-63.322c-0.087-9.892-0.644-32.755-1.019-44.847
									c-0.375-12.093-3.276-27.331-13.393-35.528c-10.439-3.36-21.9-4.001-21.9-4.001L291.755,159.332z"/>
							</g>
							<g>
								<path style="fill:#BA68C8;" d="M309.15,201.061c-0.331-11.594-4.961-32.705-16.996-38.029c-0.591-1.621-0.4-3.701-0.4-3.701
									l0.661-5.942c0,0,5.076,2.182,10.111,6.14c5.035,3.958,13.268,15.876,14.834,25.025
									C312.407,179.493,309.59,186.719,309.15,201.061z"/>
								<path style="opacity:0.45;fill:#FFFFFF;" d="M309.15,201.061c-0.331-11.594-4.961-32.705-16.996-38.029
									c-0.591-1.621-0.4-3.701-0.4-3.701l0.661-5.942c0,0,5.076,2.182,10.111,6.14c5.035,3.958,13.268,15.876,14.834,25.025
									C312.407,179.493,309.59,186.719,309.15,201.061z"/>
							</g>
						</g>
					</g>
					<g id="Head_10_">
						<path style="fill:#263238;" d="M259.995,146.941c-2.123-7.889-10.897-15.499-15.155-22.149
							c-4.106-6.412-6.667-11.446-6.876-17.821c-0.124-3.776,1.758-9.088,4.44-10.42c-4.546-13.645,5.309-21.115,10.742-22.967
							c2.084-0.71,5.53-1.829,7.488-2.876c2.902-1.551,3.354-4.048,5.595-6.349c3.857-3.962,10.916-4.714,14.12,0.423
							c2.449-3.877,6.246-4.144,10.729-3.447c4.273,0.664,6.59,4.014,6.529,7.901c5.538-3.83,11.301-0.21,12.165,3.18
							c0.637,2.5,0.301,4.692,2.177,6.808c2.114,2.383,5.646,2.004,6.523-0.167c0.948,3.548-0.199,6.429-4.128,6.601
							c1.533,1.824,2.128,4.351,1.673,6.784c-0.618,3.298-3.669,5.492-6.265,5.796c-0.227,2.017-0.139,3.838-1.219,5.662
							c-1.04,1.754-2.436,3.527-4.208,4.588c-5.651,3.384-12.111,4.923-18.361,6.849c-2.473,0.762-4.946,1.524-7.419,2.287
							c-0.432,0.133-2.704,0.489-2.938,0.906C275.607,118.532,259.995,146.941,259.995,146.941z"/>
						<g id="XMLID_5022_">
							<path style="fill:#FFA8A7;" d="M249.295,137.493c5.957,2.831,9.431-1.176,9.431-1.176l0.654,14.129l0.323,15.303
								c0,0,16.026,17.102,37.728,16.067c1.097-4.873-0.488-13.438-3.986-17.633l-0.541-12.517c0,0,5.78-0.445,9.498-1.331
								c6.204-1.458,11.046-6.938,12.193-13.917c1.199-7.293,0.61-18.973-1.747-27.355c-0.601-2.141-0.986-4.348-0.967-6.572
								c0.05-5.906-1.326-9.209-3.302-13.977c-7.449-4.917-27.131-4.216-41.19,6.272c3.92,7.304,2.646,15.232-3.491,19.228
								c0.529,2.369,1.403,8.398-2.548,8.66c-2.846,0.188-3.374-3.355-6.585-6.215c-3.277-2.92-10.096-3.057-12.29,1.819
								C239.403,125.097,242.769,134.391,249.295,137.493z"/>
							<path style="fill:#F28F8F;" d="M292.903,151.665c-10.084-0.23-17.766-0.595-23.647-7.328
								c-3.689-4.223-7.133-11.251-7.133-11.251s1.859,8.736,5.683,14.41c2.947,4.374,9.477,7.631,25.241,7.493L292.903,151.665z"/>
						</g>
						<g id="XMLID_5006_">
							<path id="XMLID_5010_" style="fill:#263238;" d="M284.973,112.594c0.131,1.612-1.022,3.018-2.573,3.14
								c-1.553,0.122-2.917-1.087-3.048-2.699c-0.131-1.613,1.021-3.018,2.574-3.14
								C283.478,109.774,284.842,110.982,284.973,112.594z"/>
							<path id="XMLID_5009_" style="fill:#263238;" d="M282.062,104.426l-5.831,3.667c-0.987-1.679-0.481-3.861,1.129-4.873
								C278.971,102.206,281.076,102.747,282.062,104.426z"/>
							<path id="XMLID_5008_" style="fill:#263238;" d="M308.278,103.308l-6.837-1.196c0.261-1.915,2.004-3.2,3.892-2.87
								C307.221,99.572,308.54,101.392,308.278,103.308z"/>
							<path id="XMLID_5007_" style="fill:#263238;" d="M307.672,109.708c0.131,1.612-1.021,3.018-2.574,3.139
								c-1.552,0.121-2.916-1.086-3.047-2.699c-0.131-1.612,1.022-3.018,2.573-3.14
								C306.177,106.886,307.542,108.094,307.672,109.708z"/>
							<path style="fill:#F28F8F;" d="M304.979,120.704l-9.351,5.262l-4.832-18.859C294.3,105.466,299.806,113.821,304.979,120.704z
								"/>
						</g>
						<g>
							<path id="XMLID_5005_" style="fill:#B16668;" d="M286.065,131.427l11.975,1.393c-0.305,3.409-3.233,5.86-6.541,5.477
								C288.192,137.912,285.76,134.836,286.065,131.427z"/>
							<path style="fill:#F28F8F;" d="M287.665,133.205c-0.503-0.007-0.984,0.06-1.452,0.158c0.559,2.564,2.626,4.625,5.285,4.934
								c0.667,0.077,1.31,0.013,1.928-0.125C293.347,135.452,290.821,133.243,287.665,133.205z"/>
						</g>
					</g>
					<g>
						<path style="fill:#BA68C8;" d="M271.151,205.282c-0.699-22.761-10.021-24.796-12.883-17.6
							c-7.056-13.01-6.434-23.573-5.918-27.759c2.589-3.661,3.608-5.958,4.485-7.346c1.161-1.835,2.544-2.131,2.544-2.131
							l0.273,5.722c0,0,0.705,6.674,6.669,15.562C270.701,178.256,271.726,186.188,271.151,205.282z"/>
						<path style="opacity:0.45;fill:#FFFFFF;" d="M271.151,205.282c-0.699-22.761-10.021-24.796-12.883-17.6
							c-7.056-13.01-6.434-23.573-5.918-27.759c2.589-3.661,3.608-5.958,4.485-7.346c1.161-1.835,2.544-2.131,2.544-2.131
							l0.273,5.722c0,0,0.705,6.674,6.669,15.562C270.701,178.256,271.726,186.188,271.151,205.282z"/>
					</g>
				</g>
				<g id="Arm_22_">
					<path style="fill:#455A64;" d="M234.519,165.98c-18.146,5.489-26.245,8.519-32.145,20.255
						c-5.9,11.736-16.164,40.804-21.888,58.422c-4.905,15.099-7.589,28.851-4.332,35.804l35.336-11.497l18.654-45.67
						C230.145,223.292,242.266,194.953,234.519,165.98z"/>
					<g>
						<path style="fill:#37474F;" d="M210.688,255.372c2.58-0.325,5.158,0.077,7.616-0.826c1.168-0.428,2.405-1.072,2.832-2.24
							c0.551-1.506-0.495-3.111-1.627-4.247c-3.09-3.103-7.222-5.047-11.508-5.946c-8.546-1.792-16.905-0.241-24.497,3.847
							c-4.434,2.388-9.855,5.627-10.167,11.274c-0.094,1.694,0.283,3.445-0.229,5.062c-0.342,1.081-1.057,2.008-1.45,3.071
							c-0.353,0.955-0.435,1.986-0.505,3.002c-0.085,1.226-0.148,2.504,0.327,3.638c0.305,0.727,0.818,1.353,1.129,2.077
							c0.467,1.086,0.453,2.315,0.778,3.452c0.665,2.326,3.185,5.006,5.29,2.67c1.91-2.12,2.562-5.012,3.813-7.508
							c1.448-2.89,4.166-5.106,6.706-7.03c3.419-2.589,7.227-4.613,11.077-6.502c2.961-1.453,6.002-2.839,9.229-3.585
							C209.897,255.489,210.293,255.422,210.688,255.372z"/>
					</g>
					<path style="fill:#F28F8F;" d="M223.861,243.97c-3.347,4.005-13.451,5.195-20.561,7.178
						c-7.109,1.983-15.861,5.371-20.721,12.798c-4.28,6.538-8.798,11.917-6.666,17.054c1.469,3.538,9.565,5.425,19.062,5.486
						c9.497,0.061,18.018-8.581,28.031-14.645c8.587-5.201,12.523-7.62,12.523-7.62L223.861,243.97z"/>
					<g>
						<path style="fill:#FFA8A7;" d="M235.924,249.705c-3.093-3.218-3.608-6.442-8.232-9.196c-4.624-2.753-7.573-2.712-12.502-5.344
							c-4.929-2.633-8.935-4.007-12.716-2.859c-3.781,1.148-3.23,3.315-0.442,5.146c2.789,1.831,7.588,4.254,10.907,6.774
							c3.318,2.519,6.581,3.978,6.509,8.243c-0.071,4.266-0.824,13.038-1.878,20.164c-1.054,7.127-2.579,12.887-2.057,13.668
							c0.522,0.781,3.58,1.191,5.54-2.765c1.96-3.956,4.676-18.451,4.676-18.451s1.194,10.118,1.627,17.078
							c0.434,6.96,0.567,12.274,0.734,13.761c0.167,1.487,5.117,0.439,6.008-4.787c0.89-5.226,0.156-20.79,0.156-20.79
							s3.96,7.152,6.508,11.789c2.548,4.637,5.689,10.946,6.733,12.508c1.044,1.563,4.219-1.111,3.548-5.292
							c-0.672-4.182-5.826-14.492-5.826-14.492s6.332,6.877,7.452,7.562c1.12,0.685,4.566,0.21,3.472-4.415
							c-0.731-3.091-2.656-5.09-7.736-11.122c-5.079-6.032-4.97-8.492-6.532-11.239
							C239.822,252.036,238.168,252.041,235.924,249.705z"/>
						<path style="fill:#F28F8F;" d="M223.006,251.878c5.118,2.384,10.222,0.161,10.945-1.108
							C233.544,254.318,226.417,256.265,223.006,251.878z"/>
						<path style="fill:#F28F8F;" d="M256.23,280.671c-0.494,0.644-1.959,0.827-3.241-0.284c-1.286-1.115-4.425-4.775-5.85-6.467
							c-1.425-1.692-6.31-7.686-6.31-7.686l4.387,8.625c0,0,6.332,6.877,7.452,7.562C253.517,282.94,255.699,282.788,256.23,280.671
							z"/>
					</g>
				</g>
			</g>
		</g>
	</g>
</g>
<g id="Speech_Bubble">
	<g id="Speech_Bubble_12_">
		<g id="Speech_Bubble_11_">
			<g>
				<g>
					<path style="fill:#FFFFFF;" d="M212.535,93.566c-5.927,20.222-21.644,36.385-71.99,46.114l2.663,14.221l-19.376-11.722
						c-0.339,0.07-38.001,1.597-56.108-8.533c-22.962-12.846-27.381-42.672-14.236-63.677c11.324-18.096,28.222-29.09,64.677-36.272
						c39.624-7.807,70.971-1.823,85.29,14.171C215.892,61.76,215.692,82.796,212.535,93.566z"/>
					<path style="fill:#455A64;" d="M143.208,154.853c-0.17,0-0.341-0.045-0.493-0.137l-19.141-11.58
						c-4.355,0.182-39.115,0.963-56.314-8.659c-10.282-5.752-17.587-15.332-20.569-26.974c-3.288-12.836-1.104-26.7,5.991-38.039
						c12.241-19.564,30.55-29.854,65.3-36.701c38.976-7.679,71.196-2.27,86.183,14.471c12.681,14.164,12.5,35.628,9.284,46.6l0,0
						c-7.171,24.469-27.999,38.005-71.795,46.6l2.49,13.292c0.069,0.369-0.085,0.744-0.394,0.958
						C143.588,154.796,143.398,154.853,143.208,154.853z M123.885,141.216c0.155,0,0.284,0.055,0.44,0.149l17.556,10.621
						l-2.273-12.131c-0.097-0.515,0.241-1.011,0.755-1.11c53.973-10.429,66.146-28.007,71.259-45.447l0,0
						c3.096-10.563,3.286-31.209-8.876-44.795c-14.535-16.235-46.084-21.419-84.397-13.872
						c-34.167,6.732-52.126,16.781-64.054,35.843c-6.82,10.899-8.92,24.224-5.761,36.557c2.853,11.132,9.832,20.29,19.655,25.785
						c17.774,9.944,55.188,8.448,55.535,8.418C123.783,141.222,123.835,141.216,123.885,141.216z M212.536,93.565h0.01H212.536z"/>
				</g>
			</g>
		</g>
		<path style="fill:#263238;" d="M75.145,76.869H86.73c0.179,0,0.334-0.065,0.464-0.195c0.131-0.13,0.196-0.285,0.196-0.464v-2.591
			c0-0.179-0.065-0.334-0.196-0.464c-0.13-0.13-0.285-0.196-0.464-0.196h-7.724v-2.737h6.99c0.179,0,0.334-0.065,0.464-0.195
			c0.131-0.13,0.196-0.285,0.196-0.465v-2.59c0-0.179-0.065-0.334-0.196-0.464c-0.13-0.13-0.285-0.196-0.464-0.196h-6.99v-2.64
			h7.528c0.179,0,0.333-0.065,0.464-0.195c0.13-0.13,0.195-0.285,0.195-0.464v-2.591c0-0.179-0.065-0.334-0.195-0.464
			c-0.131-0.13-0.285-0.196-0.464-0.196h-11.39c-0.18,0-0.334,0.065-0.465,0.196c-0.131,0.13-0.195,0.285-0.195,0.464V76.21
			c0,0.179,0.064,0.334,0.195,0.464C74.811,76.805,74.965,76.869,75.145,76.869z M106.71,73.044
			c0.351,0.807,0.852,1.512,1.504,2.114c0.651,0.603,1.438,1.08,2.358,1.43c0.92,0.351,1.968,0.526,3.141,0.526
			c1.075,0,2.073-0.159,2.994-0.477c0.92-0.317,1.723-0.745,2.407-1.283c0.685-0.538,1.222-1.173,1.613-1.907
			c0.391-0.733,0.595-1.515,0.61-2.346c0-0.146-0.053-0.272-0.158-0.379c-0.106-0.106-0.232-0.159-0.379-0.159h-3.202
			c-0.277,0-0.464,0.053-0.562,0.159c-0.098,0.106-0.188,0.29-0.269,0.55c-0.066,0.196-0.158,0.408-0.281,0.636
			c-0.122,0.228-0.297,0.436-0.525,0.623c-0.228,0.188-0.521,0.347-0.88,0.477c-0.358,0.131-0.814,0.196-1.368,0.196
			c-0.555,0-1.019-0.077-1.394-0.232c-0.375-0.155-0.684-0.362-0.929-0.623c-0.244-0.261-0.424-0.562-0.537-0.904
			c-0.114-0.342-0.188-0.701-0.221-1.076c-0.016-0.211-0.028-0.509-0.036-0.892c-0.009-0.382-0.013-0.773-0.013-1.173
			s0.004-0.786,0.013-1.161c0.008-0.375,0.021-0.668,0.036-0.88c0.033-0.374,0.106-0.733,0.221-1.075
			c0.113-0.342,0.293-0.644,0.537-0.904c0.245-0.261,0.554-0.468,0.929-0.624c0.375-0.155,0.839-0.232,1.394-0.232
			c0.554,0,1.01,0.065,1.368,0.195c0.358,0.131,0.652,0.29,0.88,0.477c0.229,0.188,0.403,0.396,0.525,0.624
			c0.123,0.228,0.216,0.44,0.281,0.635c0.082,0.261,0.172,0.444,0.269,0.55c0.098,0.106,0.284,0.159,0.562,0.159h3.202
			c0.146,0,0.272-0.053,0.379-0.159c0.105-0.105,0.158-0.232,0.158-0.379c-0.016-0.831-0.22-1.613-0.61-2.346
			c-0.392-0.733-0.929-1.369-1.613-1.906c-0.685-0.538-1.487-0.965-2.407-1.283c-0.921-0.318-1.919-0.477-2.994-0.477
			c-1.173,0-2.225,0.175-3.153,0.525c-0.929,0.35-1.715,0.827-2.358,1.43c-0.644,0.603-1.145,1.308-1.503,2.114
			c-0.358,0.807-0.554,1.658-0.587,2.554c-0.032,0.701-0.049,1.434-0.049,2.2c0,0.766,0.017,1.483,0.049,2.151
			C106.16,71.387,106.359,72.238,106.71,73.044z M131.236,63.671h4.302V76.21c0,0.179,0.065,0.334,0.195,0.464
			c0.131,0.13,0.285,0.195,0.465,0.195h3.202c0.179,0,0.333-0.065,0.464-0.195c0.13-0.13,0.195-0.285,0.195-0.464V63.671h4.302
			c0.18,0,0.334-0.065,0.465-0.195c0.13-0.13,0.195-0.285,0.195-0.464v-2.591c0-0.179-0.065-0.334-0.195-0.464
			c-0.131-0.13-0.285-0.196-0.465-0.196h-13.125c-0.179,0-0.334,0.065-0.464,0.196c-0.131,0.13-0.195,0.285-0.195,0.464v2.591
			c0,0.179,0.064,0.334,0.195,0.464C130.902,63.606,131.057,63.671,131.236,63.671z M172.921,73.044
			c0.351,0.807,0.852,1.512,1.504,2.114c0.651,0.603,1.438,1.08,2.358,1.43c0.92,0.351,1.968,0.526,3.141,0.526
			c1.075,0,2.073-0.155,2.994-0.464c0.92-0.31,1.723-0.754,2.407-1.333c0.685-0.578,1.222-1.283,1.613-2.114
			c0.391-0.831,0.586-1.768,0.586-2.811v-3.128c0-0.179-0.064-0.334-0.195-0.464c-0.131-0.13-0.285-0.195-0.464-0.195h-5.915
			c-0.18,0-0.334,0.065-0.465,0.195c-0.13,0.131-0.195,0.285-0.195,0.464v2.591c0,0.18,0.065,0.334,0.195,0.464
			c0.131,0.131,0.285,0.196,0.465,0.196h2.053c0,0.489-0.081,0.904-0.244,1.246c-0.163,0.342-0.383,0.62-0.66,0.831
			c-0.277,0.212-0.602,0.367-0.977,0.464c-0.375,0.098-0.773,0.147-1.197,0.147c-0.538,0-0.998-0.077-1.381-0.232
			c-0.383-0.155-0.693-0.362-0.929-0.623c-0.236-0.261-0.416-0.562-0.538-0.904c-0.122-0.342-0.199-0.701-0.232-1.076
			c-0.016-0.211-0.032-0.509-0.049-0.892c-0.016-0.382-0.024-0.773-0.024-1.173s0.004-0.786,0.013-1.161
			c0.008-0.375,0.028-0.668,0.061-0.88c0.049-0.374,0.131-0.733,0.245-1.075c0.113-0.342,0.289-0.644,0.525-0.904
			c0.235-0.261,0.541-0.468,0.916-0.624c0.375-0.155,0.839-0.232,1.393-0.232c0.798,0,1.393,0.122,1.784,0.366
			c0.391,0.245,0.7,0.514,0.929,0.807c0.13,0.147,0.265,0.293,0.403,0.44c0.138,0.147,0.33,0.22,0.574,0.22h3.251
			c0.146,0,0.276-0.053,0.391-0.159c0.114-0.105,0.163-0.232,0.146-0.378c-0.032-0.554-0.229-1.137-0.586-1.748
			c-0.359-0.611-0.855-1.173-1.491-1.687c-0.636-0.513-1.409-0.937-2.322-1.271c-0.912-0.334-1.938-0.501-3.079-0.501
			c-1.173,0-2.225,0.175-3.153,0.525c-0.929,0.35-1.715,0.827-2.358,1.43c-0.644,0.603-1.145,1.308-1.503,2.114
			c-0.358,0.807-0.554,1.658-0.587,2.554c-0.032,0.701-0.049,1.434-0.049,2.2c0,0.766,0.017,1.483,0.049,2.151
			C172.371,71.387,172.57,72.238,172.921,73.044z M147.882,76.869h3.201c0.18,0,0.334-0.065,0.465-0.195
			c0.13-0.13,0.195-0.285,0.195-0.464V60.421c0-0.179-0.066-0.334-0.195-0.464c-0.131-0.13-0.285-0.196-0.465-0.196h-3.201
			c-0.18,0-0.334,0.065-0.465,0.196c-0.131,0.13-0.195,0.285-0.195,0.464V76.21c0,0.179,0.064,0.334,0.195,0.464
			C147.548,76.805,147.702,76.869,147.882,76.869z M155.825,76.869h3.201c0.18,0,0.334-0.065,0.465-0.195
			c0.13-0.13,0.195-0.285,0.195-0.464v-8.261l5.597,8.359c0.049,0.081,0.159,0.195,0.33,0.342c0.171,0.146,0.395,0.22,0.672,0.22
			h2.542c0.18,0,0.334-0.065,0.465-0.195c0.13-0.13,0.195-0.285,0.195-0.464V60.421c0-0.179-0.065-0.334-0.195-0.464
			c-0.131-0.13-0.285-0.196-0.465-0.196h-3.201c-0.18,0-0.334,0.065-0.465,0.196c-0.131,0.13-0.195,0.285-0.195,0.464v8.261
			l-5.597-8.359c-0.049-0.082-0.159-0.196-0.33-0.342s-0.396-0.22-0.672-0.22h-2.542c-0.18,0-0.334,0.065-0.465,0.196
			c-0.131,0.13-0.195,0.285-0.195,0.464V76.21c0,0.179,0.064,0.334,0.195,0.464C155.491,76.805,155.645,76.869,155.825,76.869z
			 M105.39,76.711c0.105-0.106,0.158-0.232,0.158-0.379c0-0.033-0.004-0.069-0.012-0.11c-0.009-0.04-0.029-0.094-0.061-0.159
			l-5.597-7.796l5.426-7.699c0.049-0.098,0.073-0.187,0.073-0.269c0-0.147-0.053-0.273-0.159-0.379
			c-0.105-0.106-0.231-0.159-0.379-0.159H101.1c-0.326,0-0.562,0.082-0.709,0.245c-0.146,0.163-0.252,0.285-0.317,0.367l-2.859,4.13
			l-2.957-4.13c-0.065-0.081-0.172-0.204-0.318-0.367c-0.146-0.163-0.383-0.245-0.709-0.245h-3.69c-0.146,0-0.272,0.053-0.379,0.159
			c-0.105,0.106-0.158,0.232-0.158,0.379c0,0.082,0.024,0.171,0.073,0.269l5.401,7.601l-5.646,7.895
			c-0.032,0.065-0.053,0.119-0.061,0.159c-0.009,0.041-0.013,0.077-0.013,0.11c0,0.146,0.053,0.273,0.159,0.379
			c0.105,0.106,0.232,0.159,0.379,0.159h3.715c0.326,0,0.55-0.057,0.672-0.171c0.123-0.114,0.232-0.245,0.33-0.391l3.129-4.399
			l3.152,4.399c0.098,0.146,0.208,0.277,0.33,0.391c0.122,0.114,0.347,0.171,0.672,0.171h3.716
			C105.158,76.869,105.284,76.817,105.39,76.711z M127.716,59.761h-3.201c-0.18,0-0.334,0.065-0.465,0.196
			c-0.131,0.13-0.195,0.285-0.195,0.464V76.21c0,0.179,0.064,0.334,0.195,0.464c0.131,0.13,0.285,0.195,0.465,0.195h3.201
			c0.18,0,0.334-0.065,0.465-0.195c0.13-0.13,0.195-0.285,0.195-0.464V60.421c0-0.179-0.065-0.334-0.195-0.464
			C128.051,59.826,127.896,59.761,127.716,59.761z M97.473,86.951h-5.402c-0.304,0-0.564,0.11-0.784,0.33
			c-0.221,0.221-0.33,0.481-0.33,0.784v13.94L81.512,87.9c-0.083-0.137-0.269-0.33-0.558-0.577
			c-0.288-0.247-0.667-0.372-1.134-0.372h-4.289c-0.303,0-0.564,0.11-0.784,0.33c-0.22,0.221-0.33,0.481-0.33,0.784v26.644
			c0,0.303,0.11,0.564,0.33,0.784c0.22,0.221,0.481,0.33,0.784,0.33h5.402c0.303,0,0.563-0.109,0.784-0.33
			c0.22-0.22,0.33-0.48,0.33-0.784v-13.94l9.444,14.105c0.083,0.138,0.269,0.33,0.557,0.578c0.289,0.248,0.667,0.371,1.135,0.371
			h4.289c0.303,0,0.563-0.109,0.784-0.33c0.22-0.22,0.33-0.48,0.33-0.784V88.065c0-0.302-0.11-0.563-0.33-0.784
			C98.037,87.062,97.776,86.951,97.473,86.951z M160.247,86.951h-5.403c-0.274,0-0.536,0.082-0.783,0.248
			c-0.248,0.165-0.412,0.454-0.495,0.866l-2.64,13.94l-2.434-7.465c-0.055-0.192-0.179-0.44-0.371-0.743
			c-0.192-0.302-0.536-0.454-1.031-0.454h-3.877c-0.494,0-0.839,0.151-1.031,0.454c-0.192,0.303-0.316,0.55-0.371,0.743
			l-2.433,7.465l-2.64-13.94c-0.083-0.413-0.248-0.701-0.495-0.866c-0.248-0.165-0.51-0.248-0.784-0.248h-5.402
			c-0.248,0-0.461,0.09-0.64,0.268c-0.179,0.179-0.268,0.392-0.268,0.64c0,0.083,0.013,0.192,0.041,0.33l5.32,26.066
			c0.055,0.385,0.274,0.743,0.66,1.072c0.385,0.33,0.852,0.495,1.402,0.495h3.423c0.55,0,0.996-0.165,1.341-0.495
			c0.343-0.33,0.584-0.687,0.722-1.072l3.093-9.321l3.094,9.321c0.137,0.385,0.378,0.743,0.722,1.072
			c0.344,0.33,0.79,0.495,1.341,0.495h3.423c0.55,0,1.017-0.165,1.402-0.495c0.385-0.33,0.604-0.687,0.66-1.072l5.32-26.066
			c0.027-0.137,0.041-0.247,0.041-0.33c0-0.247-0.09-0.46-0.268-0.64C160.707,87.041,160.494,86.951,160.247,86.951z
			 M188.025,103.883c-0.372-0.949-0.936-1.774-1.691-2.475c-0.757-0.701-1.698-1.285-2.825-1.753
			c-1.128-0.467-2.447-0.852-3.96-1.155c-1.512-0.302-2.777-0.563-3.794-0.783c-1.018-0.22-1.835-0.447-2.454-0.681
			c-0.619-0.233-1.059-0.488-1.319-0.763c-0.262-0.274-0.393-0.619-0.393-1.031c0-0.412,0.117-0.756,0.351-1.031
			c0.233-0.274,0.536-0.488,0.907-0.639c0.372-0.151,0.798-0.261,1.279-0.33c0.48-0.068,0.982-0.103,1.505-0.103
			c0.715,0,1.32,0.076,1.815,0.227c0.494,0.151,0.907,0.33,1.237,0.536c0.329,0.207,0.583,0.406,0.763,0.598
			c0.179,0.193,0.31,0.33,0.392,0.413c0.247,0.22,0.488,0.385,0.722,0.495c0.233,0.11,0.543,0.165,0.928,0.165h5.403
			c0.22,0,0.419-0.089,0.598-0.268c0.179-0.178,0.268-0.392,0.268-0.639c-0.027-0.88-0.344-1.801-0.948-2.763
			c-0.605-0.962-1.444-1.842-2.517-2.64c-1.072-0.797-2.344-1.45-3.814-1.959c-1.472-0.508-3.087-0.763-4.847-0.763
			c-1.787,0-3.402,0.241-4.846,0.722c-1.443,0.481-2.675,1.134-3.691,1.959c-1.018,0.825-1.794,1.773-2.33,2.846
			c-0.536,1.073-0.805,2.2-0.805,3.382c0,2.365,0.652,4.255,1.959,5.671c1.306,1.416,3.375,2.427,6.207,3.032
			c1.512,0.33,2.825,0.605,3.939,0.825c1.113,0.22,2.027,0.447,2.742,0.681c0.715,0.234,1.251,0.488,1.608,0.763
			c0.357,0.275,0.536,0.619,0.536,1.031c0,0.825-0.488,1.396-1.464,1.711c-0.977,0.316-2.193,0.475-3.65,0.475
			c-0.824,0-1.52-0.096-2.082-0.289c-0.564-0.192-1.031-0.419-1.402-0.681c-0.371-0.261-0.667-0.516-0.887-0.763
			c-0.221-0.248-0.386-0.426-0.495-0.536c-0.221-0.192-0.44-0.336-0.66-0.433c-0.221-0.096-0.522-0.144-0.907-0.144H164
			c-0.22,0-0.419,0.089-0.598,0.268c-0.18,0.179-0.268,0.392-0.268,0.639c0.027,1.045,0.357,2.076,0.99,3.093
			c0.632,1.018,1.505,1.932,2.619,2.743c1.113,0.812,2.439,1.464,3.979,1.959c1.54,0.495,3.244,0.743,5.114,0.743
			c1.842,0,3.54-0.206,5.094-0.619c1.554-0.413,2.901-1.011,4.042-1.795c1.141-0.784,2.027-1.725,2.66-2.825
			c0.633-1.099,0.949-2.351,0.949-3.753C188.582,105.951,188.396,104.831,188.025,103.883z M125.025,109.224h-13.033v-4.619h11.796
			c0.302,0,0.563-0.11,0.783-0.33c0.22-0.22,0.33-0.481,0.33-0.784v-4.372c0-0.302-0.11-0.563-0.33-0.783
			c-0.221-0.22-0.481-0.33-0.783-0.33h-11.796v-4.455h12.703c0.302,0,0.563-0.109,0.783-0.33c0.22-0.22,0.33-0.481,0.33-0.784
			v-4.372c0-0.302-0.11-0.563-0.33-0.784c-0.221-0.22-0.481-0.33-0.783-0.33h-19.22c-0.303,0-0.565,0.11-0.784,0.33
			c-0.22,0.221-0.33,0.481-0.33,0.784v26.644c0,0.303,0.11,0.564,0.33,0.784c0.22,0.221,0.481,0.33,0.784,0.33h19.55
			c0.302,0,0.563-0.109,0.783-0.33c0.22-0.22,0.33-0.48,0.33-0.784v-4.372c0-0.302-0.11-0.563-0.33-0.784
			C125.588,109.334,125.327,109.224,125.025,109.224z"/>
		<g>
			<polygon style="fill:#BA68C8;" points="190.129,60.095 214.198,34.485 233.162,40.534 			"/>
			<polygon style="fill:#BA68C8;" points="187.659,55.915 203.888,33.391 191.982,34.66 			"/>
			<polygon style="fill:#BA68C8;" points="193.746,62.497 226.779,56.594 222.455,66.683 			"/>
		</g>
		<g>
			<polygon style="fill:#BA68C8;" points="70.725,116.854 46.657,142.463 27.693,136.414 			"/>
			<polygon style="fill:#BA68C8;" points="73.196,121.034 56.967,143.557 68.872,142.289 			"/>
			<polygon style="fill:#BA68C8;" points="67.109,114.452 34.076,120.354 38.399,110.265 			"/>
		</g>
		<g id="Sparkles_00000138530983061546959250000008684264313140797319_">
			<path style="fill:#BA68C8;" d="M195.141,88.643c-0.091,0-0.164-0.094-0.171-0.21c-0.104-1.689-1.455-3.04-3.144-3.144
				c-0.116-0.007-0.21-0.08-0.21-0.171c0-0.091,0.094-0.164,0.21-0.171c1.689-0.104,3.04-1.455,3.144-3.144
				c0.007-0.116,0.08-0.21,0.171-0.21c0.091,0,0.164,0.094,0.171,0.21c0.104,1.689,1.455,3.04,3.144,3.144
				c0.116,0.007,0.21,0.08,0.21,0.171c0,0.091-0.094,0.164-0.21,0.171c-1.689,0.104-3.04,1.455-3.144,3.144
				C195.305,88.548,195.232,88.643,195.141,88.643z"/>
			<path style="fill:#BA68C8;" d="M163.46,51.073c-0.093,0-0.168-0.096-0.175-0.215c-0.106-1.727-1.488-3.109-3.215-3.215
				c-0.118-0.007-0.215-0.082-0.215-0.175c0-0.093,0.096-0.168,0.215-0.175c1.727-0.106,3.109-1.488,3.215-3.215
				c0.007-0.118,0.082-0.215,0.175-0.215c0.093,0,0.168,0.096,0.175,0.215c0.106,1.727,1.488,3.109,3.215,3.215
				c0.118,0.007,0.215,0.082,0.215,0.175c0,0.093-0.096,0.168-0.214,0.175c-1.727,0.106-3.109,1.488-3.215,3.215
				C163.627,50.976,163.553,51.073,163.46,51.073z"/>
			<path style="fill:#BA68C8;" d="M63.784,91.647c-0.095,0-0.172-0.098-0.179-0.22c-0.109-1.769-1.524-3.184-3.292-3.293
				c-0.121-0.007-0.22-0.084-0.22-0.179c0-0.095,0.099-0.172,0.22-0.179c1.769-0.109,3.184-1.524,3.293-3.292
				c0.007-0.121,0.084-0.22,0.179-0.22s0.172,0.099,0.179,0.22c0.109,1.769,1.524,3.184,3.292,3.293
				c0.121,0.007,0.22,0.084,0.22,0.179c0,0.095-0.099,0.172-0.22,0.179c-1.769,0.109-3.184,1.524-3.293,3.292
				C63.955,91.548,63.879,91.647,63.784,91.647z"/>
			<path style="fill:#BA68C8;" d="M66.329,105.534c-0.066,0-0.118-0.068-0.123-0.152c-0.075-1.219-1.05-2.195-2.27-2.27
				c-0.083-0.005-0.152-0.058-0.152-0.124c0-0.066,0.068-0.118,0.152-0.123c1.219-0.075,2.195-1.051,2.27-2.27
				c0.005-0.084,0.058-0.152,0.123-0.152c0.066,0,0.118,0.068,0.124,0.151c0.075,1.219,1.051,2.195,2.27,2.27
				c0.084,0.005,0.152,0.058,0.152,0.123c0,0.066-0.068,0.118-0.152,0.124c-1.219,0.075-2.195,1.05-2.27,2.27
				C66.447,105.466,66.394,105.534,66.329,105.534z"/>
			<path style="fill:#BA68C8;" d="M154.617,53.535c-0.045,0-0.081-0.047-0.085-0.104c-0.052-0.838-0.722-1.508-1.56-1.56
				c-0.057-0.004-0.104-0.04-0.104-0.085s0.047-0.081,0.104-0.085c0.838-0.052,1.508-0.722,1.56-1.56
				c0.004-0.057,0.04-0.104,0.085-0.104s0.081,0.047,0.085,0.104c0.052,0.838,0.722,1.508,1.56,1.56
				c0.057,0.004,0.104,0.04,0.104,0.085s-0.047,0.081-0.104,0.085c-0.838,0.052-1.508,0.722-1.56,1.56
				C154.698,53.489,154.662,53.535,154.617,53.535z"/>
			<path style="fill:#BA68C8;" d="M200.81,94.317c-0.042,0-0.075-0.043-0.079-0.096c-0.048-0.777-0.67-1.399-1.447-1.447
				c-0.053-0.003-0.097-0.037-0.097-0.079c0-0.042,0.043-0.075,0.096-0.079c0.777-0.048,1.399-0.67,1.447-1.446
				c0.003-0.053,0.037-0.097,0.079-0.097c0.042,0,0.075,0.043,0.079,0.097c0.048,0.777,0.669,1.399,1.447,1.447
				c0.053,0.003,0.097,0.037,0.097,0.079c0,0.042-0.043,0.075-0.097,0.079c-0.777,0.048-1.399,0.67-1.447,1.447
				C200.886,94.274,200.852,94.317,200.81,94.317z"/>
			<path style="fill:#BA68C8;" d="M55.09,98.459c-0.035,0-0.063-0.036-0.066-0.081c-0.04-0.651-0.561-1.172-1.212-1.212
				c-0.045-0.003-0.081-0.031-0.081-0.066c0-0.035,0.036-0.063,0.081-0.066c0.651-0.04,1.172-0.561,1.212-1.212
				c0.003-0.045,0.031-0.081,0.066-0.081c0.035,0,0.063,0.036,0.066,0.081c0.04,0.651,0.561,1.172,1.212,1.212
				c0.045,0.003,0.081,0.031,0.081,0.066c0,0.035-0.036,0.063-0.081,0.066c-0.651,0.04-1.172,0.561-1.212,1.212
				C55.154,98.422,55.125,98.459,55.09,98.459z"/>
		</g>
	</g>
</g>
<g id="Exclamation_Mark">
	<g id="Exclamation_00000157986983372502465780000004987503512429054891_">
		<g>
			<path style="fill:#BA68C8;" d="M340.575,76.162c0.212-0.249,0.484-0.389,0.821-0.417c0.336-0.026,0.628,0.066,0.877,0.277
				l4.287,3.643c0.25,0.213,0.387,0.486,0.416,0.819c0.027,0.338-0.065,0.63-0.277,0.88l-2.919,3.435
				c-0.213,0.25-0.486,0.389-0.821,0.413c-0.336,0.03-0.627-0.063-0.877-0.275l-4.287-3.643c-0.249-0.211-0.387-0.484-0.415-0.821
				c-0.028-0.335,0.065-0.627,0.277-0.877L340.575,76.162z M356.328,57.621c0.211-0.249,0.484-0.387,0.82-0.415
				c0.337-0.028,0.63,0.065,0.878,0.276l4.287,3.643c0.25,0.213,0.387,0.486,0.414,0.821c0.029,0.338-0.065,0.63-0.276,0.878
				l-12.459,14.662c-0.212,0.249-0.485,0.388-0.821,0.414c-0.336,0.028-0.627-0.064-0.877-0.277l-4.287-3.643
				c-0.248-0.211-0.387-0.484-0.415-0.82c-0.029-0.336,0.065-0.628,0.276-0.877L356.328,57.621z"/>
		</g>
		<g>
			<path style="fill:#BA68C8;" d="M328.007,63.07c0.053-0.323,0.216-0.582,0.49-0.779c0.276-0.196,0.573-0.267,0.894-0.213
				l5.55,0.92c0.324,0.054,0.584,0.218,0.778,0.491c0.197,0.276,0.269,0.573,0.216,0.895l-0.738,4.449
				c-0.054,0.324-0.216,0.582-0.492,0.778c-0.272,0.196-0.571,0.267-0.894,0.213l-5.55-0.92c-0.323-0.053-0.581-0.216-0.778-0.491
				c-0.197-0.273-0.267-0.571-0.215-0.894L328.007,63.07z M331.985,39.069c0.053-0.322,0.217-0.581,0.491-0.778
				c0.275-0.196,0.572-0.268,0.893-0.214l5.55,0.92c0.324,0.054,0.584,0.218,0.778,0.491c0.199,0.274,0.268,0.572,0.215,0.894
				l-3.147,18.982c-0.052,0.323-0.215,0.583-0.492,0.778c-0.272,0.196-0.57,0.267-0.894,0.213l-5.55-0.92
				c-0.321-0.054-0.58-0.217-0.778-0.49c-0.195-0.274-0.267-0.571-0.213-0.895L331.985,39.069z"/>
		</g>
		<g style="opacity:0.3;">
			<path style="fill:#FFFFFF;" d="M328.007,63.07c0.053-0.323,0.216-0.582,0.49-0.779c0.276-0.196,0.573-0.267,0.894-0.213
				l5.55,0.92c0.324,0.054,0.584,0.218,0.778,0.491c0.197,0.276,0.269,0.573,0.216,0.895l-0.738,4.449
				c-0.054,0.324-0.216,0.582-0.492,0.778c-0.272,0.196-0.571,0.267-0.894,0.213l-5.55-0.92c-0.323-0.053-0.581-0.216-0.778-0.491
				c-0.197-0.273-0.267-0.571-0.215-0.894L328.007,63.07z M331.985,39.069c0.053-0.322,0.217-0.581,0.491-0.778
				c0.275-0.196,0.572-0.268,0.893-0.214l5.55,0.92c0.324,0.054,0.584,0.218,0.778,0.491c0.199,0.274,0.268,0.572,0.215,0.894
				l-3.147,18.982c-0.052,0.323-0.215,0.583-0.492,0.778c-0.272,0.196-0.57,0.267-0.894,0.213l-5.55-0.92
				c-0.321-0.054-0.58-0.217-0.778-0.49c-0.195-0.274-0.267-0.571-0.213-0.895L331.985,39.069z"/>
		</g>
	</g>
</g>
<g id="Likes">
	<g id="Like_00000137098882327993399830000004046314698956583053_">
		<path style="fill:#E0E0E0;" d="M443.881,178.619c-0.259,0.013-0.499-0.164-0.556-0.427l-3.967-18.119
			c-0.03-0.141-0.004-0.289,0.073-0.41c0.078-0.122,0.201-0.207,0.341-0.237l5.999-1.313c0.299-0.069,0.583,0.122,0.648,0.414
			l3.967,18.119c0.03,0.141,0.004,0.289-0.073,0.41c-0.078,0.121-0.201,0.207-0.341,0.237l-5.999,1.313
			C443.941,178.614,443.911,178.617,443.881,178.619z M440.537,160.371l3.733,17.057l4.937-1.08l-3.733-17.057L440.537,160.371z
			 M451.401,174.772c-0.259,0.013-0.499-0.164-0.556-0.427l-3.409-15.569c-0.023-0.106-0.014-0.218,0.026-0.318
			c1.02-2.554,2.578-6.598,2.69-7.275c0.104-0.625-0.631-3.245-0.944-4.363c-0.131-0.466-0.233-0.831-0.272-1.01
			c-0.049-0.225-0.062-0.793,0.876-1.201c1.181-0.516,3.567-0.589,4.956,1.408c1.52,2.183,2.202,4.226,2.224,6.715l7.652-1.675
			c2.048-0.456,3.418,1.216,3.695,2.482c0.239,1.091-0.059,1.945-0.4,2.513c0.709,0.297,1.486,0.944,1.758,2.188
			c0.229,1.038-0.124,2.402-1.17,3.209c0.241,0.349,0.509,0.874,0.672,1.616c0.205,0.944-0.432,2.616-1.556,3.314
			c0.182,0.353,0.392,0.849,0.522,1.439c0.33,1.51-0.685,3.441-2.902,3.928l-13.77,3.014
			C451.461,174.767,451.431,174.771,451.401,174.772z M448.534,158.706l3.256,14.874l13.239-2.897
			c1.512-0.331,2.293-1.629,2.073-2.632c-0.206-0.945-0.677-1.601-0.682-1.607c-0.107-0.148-0.133-0.342-0.068-0.513
			c0.064-0.171,0.212-0.299,0.391-0.339c0.832-0.182,1.533-1.651,1.393-2.296c-0.242-1.106-0.756-1.532-0.777-1.549
			c-0.147-0.118-0.225-0.307-0.201-0.494c0.023-0.187,0.139-0.351,0.311-0.429c0.994-0.453,1.343-1.549,1.166-2.352
			c-0.329-1.5-1.605-1.548-1.659-1.55c-0.221-0.005-0.416-0.142-0.494-0.348c-0.079-0.206-0.026-0.439,0.134-0.59
			c0.223-0.21,0.929-0.99,0.661-2.213c-0.148-0.68-0.939-1.973-2.4-1.654l-8.323,1.822c-0.166,0.038-0.338-0.007-0.465-0.114
			c-0.13-0.108-0.201-0.269-0.195-0.438c0.097-2.557-0.506-4.576-2.02-6.75c-0.735-1.056-1.816-1.235-2.396-1.248
			c-0.728-0.017-1.26,0.197-1.446,0.33c0.048,0.187,0.127,0.468,0.222,0.805c0.587,2.094,1.103,4.038,0.971,4.836
			C451.066,152.315,448.985,157.572,448.534,158.706z"/>
	</g>
	<g id="Like_00000154423954655320491970000007845375223243257788_">
		<path style="fill:#E0E0E0;" d="M60.895,414.443l-7.124-1.559c-0.167-0.036-0.313-0.138-0.405-0.282
			c-0.091-0.144-0.123-0.32-0.086-0.487l4.71-21.516c0.077-0.348,0.414-0.575,0.769-0.492l7.124,1.559
			c0.167,0.036,0.313,0.138,0.405,0.282c0.091,0.144,0.123,0.32,0.087,0.487l-4.71,21.516c-0.069,0.312-0.353,0.522-0.661,0.507
			C60.967,414.456,60.931,414.452,60.895,414.443z M59.111,391.506l-4.433,20.255l5.863,1.283l4.433-20.255L59.111,391.506z
			 M51.965,409.875l-16.352-3.579c-2.633-0.578-3.839-2.871-3.447-4.664c0.154-0.701,0.403-1.29,0.62-1.709
			c-1.336-0.829-2.092-2.815-1.848-3.936c0.193-0.881,0.511-1.504,0.798-1.919c-1.243-0.959-1.662-2.579-1.39-3.811
			c0.323-1.477,1.246-2.245,2.088-2.598c-0.405-0.674-0.759-1.688-0.475-2.984c0.33-1.504,1.957-3.49,4.389-2.948l9.087,1.989
			c0.027-2.955,0.837-5.382,2.641-7.974c1.65-2.371,4.484-2.284,5.886-1.672c1.114,0.485,1.098,1.159,1.04,1.427
			c-0.046,0.212-0.167,0.645-0.323,1.199c-0.372,1.329-1.245,4.44-1.121,5.182c0.132,0.803,1.984,5.606,3.194,8.639
			c0.048,0.119,0.058,0.252,0.031,0.378l-4.048,18.488c-0.068,0.312-0.353,0.522-0.661,0.507
			C52.037,409.888,52.002,409.884,51.965,409.875z M52.282,382.091c-0.157-0.947,0.455-3.257,1.153-5.743
			c0.113-0.401,0.206-0.734,0.264-0.956c-0.221-0.159-0.853-0.413-1.718-0.392c-0.689,0.016-1.972,0.228-2.845,1.482
			c-1.797,2.582-2.514,4.979-2.399,8.016c0.008,0.2-0.078,0.391-0.232,0.52c-0.151,0.127-0.355,0.181-0.552,0.136l-9.884-2.164
			c-1.735-0.38-2.674,1.156-2.85,1.964c-0.318,1.452,0.52,2.378,0.785,2.628c0.19,0.18,0.253,0.457,0.159,0.701
			c-0.093,0.244-0.324,0.407-0.587,0.413c-0.064,0.002-1.58,0.059-1.97,1.84c-0.21,0.953,0.204,2.255,1.385,2.793
			c0.204,0.092,0.341,0.287,0.369,0.509c0.029,0.222-0.064,0.447-0.239,0.587c-0.025,0.02-0.635,0.525-0.923,1.839
			c-0.166,0.765,0.667,2.51,1.654,2.726c0.213,0.046,0.388,0.199,0.465,0.402c0.078,0.203,0.047,0.433-0.08,0.61
			c-0.006,0.008-0.565,0.787-0.81,1.909c-0.26,1.192,0.667,2.732,2.462,3.126l15.722,3.441l3.867-17.664
			C54.942,389.464,52.471,383.221,52.282,382.091z"/>
	</g>
	<g id="Like_00000011737892194930705940000010694770331994122159_">
		<path id="XMLID_00000124839873910334359190000004209604405362716804_" style="fill:#E0E0E0;" d="M428.496,282.209
			c0,0-1.294-7.3-1.251-8.365c0.042-1.065,2.18-4.881,2.503-5.604c0.323-0.723-2.991-2.528-5.246-0.391
			c-2.255,2.137-3.314,4.266-3.772,6.989l-8.359-3.733c-1.764-0.788-3.214,0.517-3.658,1.511c-0.626,1.401-0.065,2.573,0.266,3.046
			c0,0-1.854-0.34-2.722,1.603c-0.484,1.085-0.241,2.603,0.904,3.439c0,0-0.825,0.391-1.431,1.746
			c-0.404,0.904,0.085,2.965,1.26,3.49c0,0-0.725,0.652-1.209,1.737c-0.585,1.311,0.095,3.186,1.903,3.994
			c1.808,0.808,13.83,6.176,13.83,6.176L428.496,282.209z"/>
		<path style="fill:#E0E0E0;" d="M422.556,300.845l6.035,2.69l8.118-18.199l-6.023-2.69L422.556,300.845z M425.651,299.357
			c0-0.655,0.524-1.178,1.178-1.178s1.178,0.524,1.178,1.178c0,0.655-0.524,1.178-1.178,1.178S425.651,300.012,425.651,299.357z"/>
	</g>
	<g id="Like_00000149354206081520248160000002456118871371074983_">
		<path id="XMLID_00000152244142429534477510000013548532149684714375_" style="fill:#E0E0E0;" d="M45.482,181.03
			c0,0,1.294-7.3,1.251-8.365c-0.042-1.065-2.18-4.881-2.503-5.604c-0.323-0.723,2.991-2.528,5.247-0.391
			c2.255,2.137,3.314,4.266,3.772,6.989l8.359-3.733c1.764-0.788,3.214,0.517,3.658,1.511c0.626,1.401,0.065,2.573-0.266,3.046
			c0,0,1.854-0.34,2.722,1.603c0.485,1.085,0.241,2.603-0.903,3.439c0,0,0.825,0.391,1.43,1.747c0.404,0.904-0.085,2.965-1.26,3.49
			c0,0,0.725,0.652,1.209,1.737c0.585,1.311-0.095,3.186-1.903,3.994c-1.808,0.808-13.83,6.176-13.83,6.176L45.482,181.03z"/>
		<path style="fill:#E0E0E0;" d="M43.292,181.468l-6.023,2.69l8.118,18.199l6.035-2.69L43.292,181.468z M47.149,199.357
			c-0.655,0-1.178-0.524-1.178-1.178c0-0.654,0.524-1.178,1.178-1.178c0.655,0,1.178,0.524,1.178,1.178
			C48.327,198.833,47.804,199.357,47.149,199.357z"/>
	</g>
</g>
</svg>
